<?xml version="1.0" encoding="UTF-8"?><svg xmlns="http://www.w3.org/2000/svg" xmlns:xlink="http://www.w3.org/1999/xlink" contentScriptType="text/ecmascript" width="224.87999pt" zoomAndPan="magnify" contentStyleType="text/css" viewBox="0 0 224.87999 225" height="225pt" preserveAspectRatio="xMidYMid meet" version="1.2"><defs><clipPath xml:id="clip1" id="clip1"><path d="M 14.054688 0.0585938 L 211 0.0585938 L 211 224.9375 L 14.054688 224.9375 Z M 14.054688 0.0585938 "/></clipPath></defs><g xml:id="surface1" id="surface1"><g clip-rule="nonzero" clip-path="url(#clip1)"><path style=" stroke:none;fill-rule:nonzero;fill:rgb(65.098572%,65.489197%,72.158813%);fill-opacity:1;" d="M 88.449219 197.199219 C 82.691406 200.53125 81.597656 200.921875 76.183594 202.835938 C 74.875 203.28125 72.894531 204.074219 76.933594 206.390625 L 104.046875 222.605469 C 106.632812 224.128906 109.625 224.921875 112.570312 224.921875 L 112.589844 224.941406 C 115.574219 224.941406 118.515625 224.136719 121.105469 222.625 L 202.273438 175.25 C 207.546875 172.144531 210.800781 166.40625 210.800781 160.273438 L 210.800781 65.582031 C 210.800781 59.40625 207.554688 53.667969 202.273438 50.605469 L 121.105469 3.1875 C 116.011719 0.257812 109.195312 0.257812 104.054688 3.1875 L 22.980469 50.558594 C 17.71875 53.628906 14.464844 59.40625 14.464844 65.535156 L 14.464844 160.230469 C 14.464844 166.40625 17.707031 172.144531 22.980469 175.207031 L 44.25 187.605469 C 54.535156 192.765625 58.21875 192.765625 62.917969 192.765625 C 78.167969 192.765625 86.957031 183.433594 86.957031 167.171875 L 86.957031 73.636719 C 86.957031 72.3125 85.863281 71.285156 84.582031 71.285156 L 74.296875 71.285156 C 72.980469 71.285156 71.921875 72.300781 71.921875 73.636719 L 71.921875 167.125 C 71.921875 174.367188 64.535156 181.523438 52.449219 175.4375 L 30.21875 162.457031 C 29.441406 162.058594 28.953125 161.171875 28.953125 160.273438 L 28.953125 65.582031 C 28.953125 64.660156 29.441406 63.761719 30.226562 63.316406 L 111.300781 15.941406 C 112.039062 15.492188 113.058594 15.492188 113.804688 15.941406 L 194.925781 63.269531 C 195.710938 63.753906 196.195312 64.601562 196.195312 65.535156 L 196.195312 160.273438 C 196.195312 161.152344 195.71875 162.046875 194.972656 162.496094 L 113.804688 209.871094 C 113.105469 210.316406 112.046875 210.316406 111.300781 209.871094 L 90.46875 197.386719 C 89.851562 196.984375 89.066406 196.84375 88.449219 197.199219 Z M 88.449219 197.199219 "/></g><path style=" stroke:none;fill-rule:nonzero;fill:rgb(65.098572%,65.489197%,72.158813%);fill-opacity:1;" d="M 137.625 145.335938 C 116.140625 145.335938 111.429688 139.867188 109.859375 129.070312 C 109.683594 127.914062 108.71875 127.074219 107.53125 127.074219 L 97.035156 127.074219 C 95.714844 127.074219 94.707031 128.140625 94.707031 129.425781 C 94.707031 143.246094 102.128906 159.734375 137.671875 159.734375 C 163.328125 159.6875 178.105469 149.433594 178.105469 131.5625 L 178.078125 131.574219 C 178.078125 113.84375 166.214844 109.132812 141.300781 105.800781 C 116.078125 102.421875 113.535156 100.6875 113.535156 94.734375 C 113.535156 89.808594 115.695312 83.226562 134.363281 83.226562 C 151.023438 83.226562 157.175781 86.867188 159.71875 98.242188 C 159.933594 99.316406 160.90625 100.109375 162.007812 100.109375 L 172.554688 100.109375 C 173.207031 100.109375 173.824219 99.847656 174.265625 99.351562 C 174.703125 98.859375 174.917969 98.195312 174.882812 97.53125 C 173.253906 77.9375 160.382812 68.832031 134.363281 68.832031 C 111.207031 68.832031 97.40625 78.703125 97.40625 95.265625 C 97.40625 113.21875 111.160156 118.203125 133.355469 120.414062 C 159.941406 123.042969 162 126.992188 162 132.28125 C 162.019531 141.4375 154.726562 145.335938 137.625 145.335938 Z M 137.625 145.335938 "/></g></svg>