<?xml version="1.0" encoding="UTF-8"?><svg xmlns="http://www.w3.org/2000/svg" xmlns:xlink="http://www.w3.org/1999/xlink" contentScriptType="text/ecmascript" width="224.87999pt" zoomAndPan="magnify" contentStyleType="text/css" viewBox="0 0 224.87999 225" height="225pt" preserveAspectRatio="xMidYMid meet" version="1.2"><defs><clipPath xml:id="clip1" id="clip1"><path d="M 50 128 L 111 128 L 111 213.695312 L 50 213.695312 Z M 50 128 "/></clipPath><clipPath xml:id="clip2" id="clip2"><path d="M 49.570312 88 L 111 88 L 111 152 L 49.570312 152 Z M 49.570312 88 "/></clipPath><clipPath xml:id="clip3" id="clip3"><path d="M 51 11.304688 L 111 11.304688 L 111 111 L 51 111 Z M 51 11.304688 "/></clipPath><clipPath xml:id="clip4" id="clip4"><path d="M 114 11.304688 L 175 11.304688 L 175 111 L 114 111 Z M 114 11.304688 "/></clipPath><clipPath xml:id="clip5" id="clip5"><path d="M 114 128 L 175.503906 128 L 175.503906 213.695312 L 114 213.695312 Z M 114 128 "/></clipPath><clipPath xml:id="clip6" id="clip6"><path d="M 114 88 L 175.503906 88 L 175.503906 152 L 114 152 Z M 114 88 "/></clipPath></defs><g xml:id="surface1" id="surface1"><g clip-rule="nonzero" clip-path="url(#clip1)"><path style=" stroke:none;fill-rule:nonzero;fill:rgb(65.098572%,65.489197%,72.158813%);fill-opacity:1;" d="M 110.550781 213.71875 L 50.015625 128.21875 L 110.550781 163.609375 Z M 110.550781 213.71875 "/></g><g clip-rule="nonzero" clip-path="url(#clip2)"><path style=" stroke:none;fill-rule:nonzero;fill:rgb(65.098572%,65.489197%,72.158813%);fill-opacity:1;" d="M 110.550781 151.078125 L 49.605469 115.433594 L 110.550781 88.78125 Z M 110.550781 151.078125 "/></g><g clip-rule="nonzero" clip-path="url(#clip3)"><path style=" stroke:none;fill-rule:nonzero;fill:rgb(65.098572%,65.489197%,72.158813%);fill-opacity:1;" d="M 110.550781 84.496094 L 51.570312 110.289062 L 110.550781 11.347656 L 110.550781 84.496094 "/></g><g clip-rule="nonzero" clip-path="url(#clip4)"><path style=" stroke:none;fill-rule:nonzero;fill:rgb(65.098572%,65.489197%,72.158813%);fill-opacity:1;" d="M 114.480469 11.320312 L 174.292969 110.65625 L 114.480469 84.496094 L 114.480469 11.320312 "/></g><g clip-rule="nonzero" clip-path="url(#clip5)"><path style=" stroke:none;fill-rule:nonzero;fill:rgb(65.098572%,65.489197%,72.158813%);fill-opacity:1;" d="M 114.480469 213.71875 L 114.480469 163.609375 L 175.015625 128.21875 L 114.480469 213.71875 "/></g><g clip-rule="nonzero" clip-path="url(#clip6)"><path style=" stroke:none;fill-rule:nonzero;fill:rgb(65.098572%,65.489197%,72.158813%);fill-opacity:1;" d="M 114.480469 151.078125 L 114.480469 88.78125 L 175.46875 115.453125 Z M 114.480469 151.078125 "/></g></g></svg>