<?xml version="1.0" encoding="UTF-8"?><svg xmlns="http://www.w3.org/2000/svg" xmlns:xlink="http://www.w3.org/1999/xlink" contentScriptType="text/ecmascript" width="224.87999pt" zoomAndPan="magnify" contentStyleType="text/css" viewBox="0 0 224.87999 225" height="225pt" preserveAspectRatio="xMidYMid meet" version="1.2"><defs><clipPath xml:id="clip1" id="clip1"><path d="M 22.488281 33 L 202.390625 33 L 202.390625 191 L 22.488281 191 Z M 22.488281 33 "/></clipPath></defs><g xml:id="surface1" id="surface1"><path style=" stroke:none;fill-rule:nonzero;fill:rgb(65.098572%,65.489197%,72.158813%);fill-opacity:1;" d="M 128.535156 112.15625 C 128.535156 112.683594 128.507812 113.207031 128.457031 113.734375 C 128.40625 114.257812 128.328125 114.777344 128.226562 115.296875 C 128.121094 115.8125 127.992188 116.324219 127.839844 116.828125 C 127.6875 117.332031 127.511719 117.828125 127.308594 118.316406 C 127.105469 118.804688 126.882812 119.28125 126.632812 119.746094 C 126.386719 120.210938 126.113281 120.664062 125.820312 121.101562 C 125.527344 121.539062 125.214844 121.960938 124.878906 122.371094 C 124.546875 122.777344 124.191406 123.167969 123.820312 123.539062 C 123.449219 123.914062 123.058594 124.265625 122.648438 124.601562 C 122.242188 124.9375 121.820312 125.25 121.382812 125.542969 C 120.941406 125.835938 120.492188 126.105469 120.027344 126.355469 C 119.5625 126.605469 119.085938 126.828125 118.597656 127.03125 C 118.113281 127.234375 117.617188 127.410156 117.113281 127.5625 C 116.605469 127.714844 116.097656 127.84375 115.578125 127.949219 C 115.0625 128.050781 114.542969 128.128906 114.015625 128.179688 C 113.492188 128.230469 112.96875 128.257812 112.441406 128.257812 C 111.914062 128.257812 111.386719 128.230469 110.863281 128.179688 C 110.339844 128.128906 109.816406 128.050781 109.300781 127.949219 C 108.785156 127.84375 108.273438 127.714844 107.769531 127.5625 C 107.265625 127.410156 106.769531 127.234375 106.28125 127.03125 C 105.792969 126.828125 105.316406 126.605469 104.851562 126.355469 C 104.386719 126.105469 103.9375 125.835938 103.5 125.542969 C 103.058594 125.25 102.636719 124.9375 102.230469 124.601562 C 101.824219 124.265625 101.433594 123.914062 101.058594 123.539062 C 100.6875 123.167969 100.332031 122.777344 100 122.371094 C 99.664062 121.960938 99.351562 121.539062 99.058594 121.101562 C 98.765625 120.664062 98.496094 120.210938 98.246094 119.746094 C 97.996094 119.28125 97.773438 118.804688 97.570312 118.316406 C 97.371094 117.828125 97.191406 117.332031 97.039062 116.828125 C 96.886719 116.324219 96.757812 115.8125 96.65625 115.296875 C 96.550781 114.777344 96.476562 114.257812 96.421875 113.734375 C 96.371094 113.207031 96.347656 112.683594 96.347656 112.15625 C 96.347656 111.628906 96.371094 111.101562 96.421875 110.578125 C 96.476562 110.050781 96.550781 109.53125 96.65625 109.011719 C 96.757812 108.496094 96.886719 107.984375 97.039062 107.480469 C 97.191406 106.976562 97.371094 106.480469 97.570312 105.992188 C 97.773438 105.503906 97.996094 105.03125 98.246094 104.566406 C 98.496094 104.097656 98.765625 103.648438 99.058594 103.210938 C 99.351562 102.769531 99.664062 102.347656 100 101.941406 C 100.332031 101.53125 100.6875 101.140625 101.058594 100.769531 C 101.433594 100.394531 101.824219 100.042969 102.230469 99.707031 C 102.636719 99.375 103.058594 99.058594 103.5 98.765625 C 103.9375 98.472656 104.386719 98.203125 104.851562 97.953125 C 105.316406 97.707031 105.792969 97.480469 106.28125 97.277344 C 106.769531 97.078125 107.265625 96.898438 107.769531 96.746094 C 108.273438 96.59375 108.785156 96.464844 109.300781 96.363281 C 109.816406 96.257812 110.339844 96.183594 110.863281 96.128906 C 111.386719 96.078125 111.914062 96.054688 112.441406 96.054688 C 112.96875 96.054688 113.492188 96.078125 114.015625 96.128906 C 114.542969 96.183594 115.0625 96.257812 115.578125 96.363281 C 116.097656 96.464844 116.605469 96.59375 117.113281 96.746094 C 117.617188 96.898438 118.113281 97.078125 118.597656 97.277344 C 119.085938 97.480469 119.5625 97.707031 120.027344 97.953125 C 120.492188 98.203125 120.941406 98.472656 121.382812 98.765625 C 121.820312 99.058594 122.242188 99.375 122.648438 99.707031 C 123.058594 100.042969 123.449219 100.394531 123.820312 100.769531 C 124.191406 101.140625 124.546875 101.53125 124.878906 101.941406 C 125.214844 102.347656 125.527344 102.769531 125.820312 103.210938 C 126.113281 103.648438 126.386719 104.097656 126.632812 104.566406 C 126.882812 105.03125 127.105469 105.503906 127.308594 105.992188 C 127.511719 106.480469 127.6875 106.976562 127.839844 107.480469 C 127.992188 107.984375 128.121094 108.496094 128.226562 109.011719 C 128.328125 109.53125 128.40625 110.050781 128.457031 110.578125 C 128.507812 111.101562 128.535156 111.628906 128.535156 112.15625 Z M 128.535156 112.15625 "/><g clip-rule="nonzero" clip-path="url(#clip1)"><path style=" stroke:none;fill-rule:nonzero;fill:rgb(65.098572%,65.489197%,72.158813%);fill-opacity:1;" d="M 56.324219 140.667969 C 57.90625 141.195312 59.488281 141.726562 61.105469 142.183594 C 60.582031 144.292969 60.125 146.367188 59.699219 148.515625 C 56.011719 168.027344 58.886719 183.492188 68.09375 188.800781 C 77.582031 194.285156 93.535156 188.660156 109.066406 175.054688 C 110.296875 173.96875 111.527344 172.84375 112.753906 171.644531 C 114.300781 173.15625 115.917969 174.597656 117.53125 176 C 132.566406 188.9375 147.429688 194.171875 156.605469 188.871094 C 166.097656 183.386719 169.183594 166.761719 165.183594 146.511719 C 164.867188 144.964844 164.515625 143.382812 164.125 141.765625 C 165.25 141.449219 166.335938 141.097656 167.429688 140.742188 C 187.707031 134.03125 202.390625 123.164062 202.390625 112.019531 C 202.390625 101.371094 188.546875 91.035156 169.433594 84.457031 L 169.433594 84.449219 C 167.535156 83.820312 165.640625 83.222656 163.742188 82.660156 C 164.058594 81.359375 164.34375 80.054688 164.621094 78.757812 C 168.945312 57.804688 166.097656 40.976562 156.5 35.417969 C 147.257812 30.109375 132.183594 35.628906 116.9375 48.917969 C 115.421875 50.214844 113.953125 51.585938 112.546875 52.960938 C 111.59375 52.042969 110.609375 51.128906 109.628906 50.253906 C 93.640625 36.046875 77.621094 30.070312 68.027344 35.664062 C 58.820312 41.011719 56.078125 56.867188 59.945312 76.679688 C 60.335938 78.652344 60.753906 80.582031 61.242188 82.554688 C 58.992188 83.183594 56.78125 83.886719 54.707031 84.632812 C 35.941406 91.132812 22.488281 101.398438 22.488281 112.019531 C 22.488281 122.992188 36.820312 133.988281 56.324219 140.667969 Z M 104.113281 169.308594 C 98.316406 174.621094 91.601562 178.835938 84.292969 181.722656 C 80.394531 183.582031 75.898438 183.761719 71.886719 182.179688 C 66.300781 178.949219 63.976562 166.535156 67.140625 149.832031 C 67.53125 147.867188 67.953125 145.894531 68.4375 143.960938 C 76.308594 145.648438 84.246094 146.8125 92.296875 147.402344 C 96.9375 153.980469 102.027344 160.273438 107.476562 166.175781 C 106.351562 167.261719 105.230469 168.320312 104.105469 169.304688 Z M 148.734375 103.296875 C 147.085938 100.199219 145.398438 97.109375 143.636719 94.089844 C 141.914062 91.101562 140.121094 88.148438 138.265625 85.230469 C 143.921875 85.9375 149.335938 86.882812 154.394531 88.042969 C 152.777344 93.25 150.878906 98.308594 148.734375 103.296875 Z M 148.804688 120.800781 C 151.050781 125.902344 153.023438 131.070312 154.738281 136.378906 C 149.289062 137.609375 143.78125 138.5625 138.226562 139.191406 C 140.121094 136.238281 141.914062 133.214844 143.675781 130.191406 C 145.46875 127.09375 147.152344 123.96875 148.804688 120.800781 Z M 144.742188 112.058594 C 142.386719 116.910156 139.851562 121.6875 137.15625 126.398438 C 134.484375 131.070312 131.636719 135.605469 128.652344 140.105469 C 123.421875 140.496094 117.972656 140.667969 112.453125 140.667969 C 106.9375 140.667969 101.601562 140.496094 96.4375 140.175781 C 93.378906 135.710938 90.5 131.136719 87.792969 126.464844 C 85.085938 121.792969 82.589844 117.042969 80.238281 112.191406 L 80.222656 112.191406 C 82.539062 107.339844 85.070312 102.59375 87.742188 97.921875 C 90.410156 93.25 93.296875 88.710938 96.316406 84.25 C 101.585938 83.859375 106.960938 83.648438 112.449219 83.648438 C 117.933594 83.648438 123.339844 83.859375 128.578125 84.25 C 131.5625 88.679688 134.410156 93.210938 137.117188 97.851562 C 139.824219 102.496094 142.347656 107.242188 144.742188 112.058594 Z M 81.195312 94.15625 C 79.472656 97.140625 77.785156 100.191406 76.203125 103.289062 C 73.992188 98.054688 72.125 92.925781 70.582031 87.96875 C 75.640625 86.84375 81.015625 85.929688 86.601562 85.222656 C 84.75 88.140625 82.921875 91.125 81.195312 94.15625 Z M 76.210938 121.078125 C 77.832031 124.175781 79.480469 127.238281 81.234375 130.257812 C 83.027344 133.320312 84.855469 136.378906 86.789062 139.363281 C 81.308594 138.765625 75.859375 137.886719 70.484375 136.722656 C 72.027344 131.660156 73.964844 126.425781 76.210938 121.078125 Z M 112.726562 160.761719 C 109.140625 156.898438 105.558594 152.617188 102.082031 148.003906 C 105.453125 148.144531 108.933594 148.214844 112.449219 148.214844 C 116.066406 148.214844 119.613281 148.144531 123.128906 147.964844 C 119.898438 152.429688 116.421875 156.6875 112.726562 160.761719 Z M 158.652344 171.320312 C 158.332031 175.601562 156.222656 179.609375 152.851562 182.316406 C 147.265625 185.546875 135.355469 181.332031 122.492188 170.292969 C 121.015625 169.027344 119.539062 167.652344 118.03125 166.25 C 123.40625 160.3125 128.363281 154.019531 132.859375 147.410156 C 140.902344 146.742188 148.914062 145.515625 156.824219 143.722656 C 157.175781 145.160156 157.492188 146.601562 157.777344 148.011719 C 159.5 155.609375 159.777344 163.511719 158.652344 171.320312 Z M 161.703125 89.902344 C 163.53125 90.429688 165.285156 90.992188 166.972656 91.554688 C 183.34375 97.179688 194.835938 105.546875 194.835938 111.945312 C 194.835938 118.835938 182.574219 127.730469 165.039062 133.527344 C 164.058594 133.84375 163.074219 134.160156 162.054688 134.445312 C 159.597656 126.78125 156.578125 119.292969 153.097656 112.011719 C 156.472656 104.84375 159.320312 97.457031 161.703125 89.902344 Z M 121.886719 54.609375 C 134.964844 43.226562 147.152344 38.761719 152.707031 41.957031 C 158.644531 45.371094 160.929688 59.148438 157.207031 77.25 C 156.957031 78.445312 156.710938 79.605469 156.398438 80.769531 C 148.59375 79.015625 140.691406 77.746094 132.746094 77.042969 C 128.179688 70.492188 123.1875 64.238281 117.777344 58.367188 C 119.148438 57.070312 120.484375 55.839844 121.886719 54.609375 Z M 112.515625 63.75 C 116.203125 67.757812 119.679688 71.972656 122.910156 76.328125 C 115.957031 76.015625 108.960938 76.015625 102.003906 76.328125 C 105.445312 71.800781 109 67.585938 112.515625 63.75 Z M 71.75 42.203125 C 77.660156 38.761719 90.761719 43.683594 104.570312 55.914062 C 105.445312 56.6875 106.324219 57.535156 107.238281 58.375 C 101.789062 64.238281 96.765625 70.492188 92.164062 77.035156 C 84.226562 77.738281 76.355469 78.96875 68.550781 80.695312 C 68.09375 78.902344 67.710938 77.070312 67.320312 75.242188 C 64.015625 58.222656 66.195312 45.398438 71.75 42.203125 Z M 57.171875 91.761719 C 59.171875 91.058594 61.210938 90.429688 63.25 89.828125 C 65.640625 97.457031 68.519531 104.949219 71.855469 112.183594 C 68.484375 119.535156 65.566406 127.125 63.144531 134.855469 L 63.140625 134.863281 C 61.660156 134.445312 60.222656 133.988281 58.785156 133.492188 C 51.300781 131.136719 42.792969 127.410156 36.648438 122.527344 C 33.101562 120.066406 30.710938 116.273438 30.042969 112.011719 C 30.042969 105.578125 41.144531 97.351562 57.171875 91.761719 Z M 57.171875 91.761719 "/></g></g></svg>