<?xml version="1.0" encoding="UTF-8"?><svg xmlns="http://www.w3.org/2000/svg" xmlns:xlink="http://www.w3.org/1999/xlink" contentScriptType="text/ecmascript" width="224.87999pt" zoomAndPan="magnify" contentStyleType="text/css" viewBox="0 0 224.87999 225" height="225pt" preserveAspectRatio="xMidYMid meet" version="1.2"><defs><clipPath xml:id="clip1" id="clip1"><path d="M 7.738281 57 L 216.875 57 L 216.875 191 L 7.738281 191 Z M 7.738281 57 "/></clipPath></defs><g xml:id="surface1" id="surface1"><g clip-rule="nonzero" clip-path="url(#clip1)"><path style=" stroke:none;fill-rule:nonzero;fill:rgb(65.098572%,65.489197%,72.158813%);fill-opacity:1;" d="M 151.441406 57.277344 C 150.382812 57.277344 149.410156 58.125 149.410156 59.304688 L 149.410156 96.394531 L 141.003906 91.492188 C 140.480469 91.179688 139.886719 91.03125 139.292969 91.03125 C 138.699219 91.03125 138.105469 91.179688 137.578125 91.492188 L 117.378906 103.273438 C 116.328125 103.882812 115.679688 105.007812 115.679688 106.214844 L 115.679688 129.808594 C 115.679688 131.019531 116.328125 132.136719 117.378906 132.746094 L 137.578125 144.527344 C 138.105469 144.839844 138.699219 144.992188 139.292969 144.992188 C 139.886719 144.992188 140.480469 144.839844 141.003906 144.527344 L 161.207031 132.746094 C 162.257812 132.136719 162.90625 131.015625 162.90625 129.808594 L 162.90625 65.578125 C 162.90625 64.378906 162.261719 63.273438 161.230469 62.667969 L 152.441406 57.554688 C 152.113281 57.363281 151.777344 57.277344 151.441406 57.277344 Z M 85.320312 91.03125 C 84.730469 91.03125 84.136719 91.183594 83.609375 91.492188 L 63.410156 103.273438 C 62.355469 103.882812 61.707031 105.007812 61.707031 106.214844 L 61.707031 129.808594 C 61.707031 131.019531 62.355469 132.136719 63.410156 132.746094 L 83.609375 144.527344 C 84.667969 145.144531 85.976562 145.144531 87.035156 144.527344 L 107.234375 132.746094 C 108.285156 132.136719 108.933594 131.015625 108.933594 129.808594 L 108.933594 106.214844 C 108.933594 105 108.285156 103.882812 107.234375 103.273438 L 87.035156 91.492188 C 86.503906 91.183594 85.914062 91.03125 85.320312 91.03125 Z M 193.265625 91.03125 C 192.671875 91.03125 192.078125 91.179688 191.550781 91.492188 L 171.351562 103.273438 C 170.296875 103.882812 169.652344 105.007812 169.652344 106.214844 L 169.652344 129.808594 C 169.652344 131.019531 170.296875 132.136719 171.351562 132.746094 L 190.945312 144.59375 C 191.996094 145.234375 193.316406 145.242188 194.382812 144.621094 L 204.015625 139.019531 C 205.015625 138.445312 205.019531 136.996094 204.015625 136.410156 L 183.144531 124.113281 L 183.144531 112 L 193.265625 106.109375 L 203.382812 112 L 203.382812 120.4375 C 203.382812 121.5625 204.332031 121.734375 204.964844 121.359375 C 207.515625 119.859375 215.203125 115.402344 215.203125 115.402344 C 216.234375 114.800781 216.875 113.6875 216.875 112.488281 L 216.875 106.214844 C 216.875 105 216.230469 103.882812 215.175781 103.273438 L 194.976562 91.492188 C 194.445312 91.179688 193.855469 91.03125 193.265625 91.03125 Z M 31.351562 91.042969 C 30.757812 91.042969 30.164062 91.195312 29.636719 91.503906 L 9.4375 103.273438 C 8.386719 103.890625 7.738281 105.011719 7.738281 106.226562 L 7.738281 136.34375 C 7.738281 137.816406 9.328125 138.726562 10.597656 137.992188 L 19.558594 132.773438 C 20.589844 132.164062 21.230469 131.0625 21.230469 129.859375 L 21.230469 112.027344 L 31.351562 106.121094 L 41.46875 112.027344 L 41.46875 129.859375 C 41.46875 131.0625 42.109375 132.164062 43.144531 132.773438 L 52.101562 137.992188 C 53.371094 138.734375 54.960938 137.816406 54.960938 136.34375 L 54.960938 106.226562 C 54.960938 105.011719 54.316406 103.890625 53.261719 103.273438 L 33.0625 91.503906 C 32.535156 91.195312 31.945312 91.042969 31.351562 91.042969 Z M 139.292969 106.109375 L 149.410156 112.011719 L 149.410156 124.007812 L 139.292969 129.914062 L 129.171875 124.007812 L 129.171875 112.011719 Z M 193.265625 111.289062 L 187.480469 114.664062 L 187.480469 121.398438 L 193.265625 124.757812 L 199.046875 121.398438 L 199.046875 114.664062 Z M 111.675781 138.242188 C 110.980469 138.242188 110.277344 138.410156 109.671875 138.757812 L 90.699219 149.722656 C 89.449219 150.410156 88.695312 151.765625 88.695312 153.175781 L 88.695312 175.082031 C 88.695312 176.492188 89.484375 177.820312 90.699219 178.535156 L 95.691406 181.382812 C 98.085938 182.5625 98.964844 182.566406 100.050781 182.566406 C 103.628906 182.566406 105.664062 180.429688 105.664062 176.648438 L 105.664062 155.007812 C 105.664062 154.675781 105.410156 154.441406 105.113281 154.441406 L 102.714844 154.441406 C 102.382812 154.441406 102.148438 154.710938 102.148438 155.007812 L 102.148438 176.648438 C 102.148438 178.289062 100.414062 179.972656 97.589844 178.558594 L 92.398438 175.570312 C 92.226562 175.46875 92.105469 175.261719 92.105469 175.066406 L 92.105469 153.160156 C 92.105469 152.964844 92.203125 152.734375 92.398438 152.636719 L 111.371094 141.695312 C 111.574219 141.59375 111.800781 141.59375 111.964844 141.695312 L 130.953125 152.636719 C 131.148438 152.734375 131.242188 152.933594 131.242188 153.160156 L 131.242188 175.066406 C 131.242188 175.296875 131.113281 175.492188 130.953125 175.59375 L 111.964844 186.574219 C 111.796875 186.675781 111.535156 186.675781 111.371094 186.574219 L 106.523438 183.6875 C 106.394531 183.621094 106.1875 183.582031 106.0625 183.648438 C 104.71875 184.4375 104.449219 184.539062 103.203125 184.964844 C 102.871094 185.066406 102.421875 185.269531 103.375 185.796875 L 109.671875 189.539062 C 110.300781 189.871094 110.984375 190.066406 111.675781 190.066406 C 112.394531 190.066406 113.097656 189.871094 113.652344 189.511719 L 132.625 178.535156 C 133.875 177.84375 134.628906 176.492188 134.628906 175.082031 L 134.628906 153.175781 C 134.628906 151.765625 133.839844 150.445312 132.625 149.722656 L 113.652344 138.757812 C 113.0625 138.410156 112.367188 138.242188 111.675781 138.242188 Z M 141.269531 148.351562 C 139.332031 148.351562 137.632812 149.917969 137.632812 151.988281 C 137.632812 153.992188 139.265625 155.640625 141.269531 155.640625 C 143.273438 155.640625 144.90625 153.992188 144.90625 151.988281 C 144.90625 149.917969 143.238281 148.316406 141.269531 148.351562 Z M 141.230469 148.929688 C 142.941406 148.929688 144.324219 150.28125 144.324219 151.988281 C 144.324219 153.664062 142.9375 155.046875 141.230469 155.085938 C 139.550781 155.085938 138.1875 153.695312 138.1875 151.988281 C 138.1875 150.28125 139.554688 148.929688 141.230469 148.929688 Z M 139.898438 149.917969 L 139.898438 154.019531 L 140.675781 154.019531 L 140.675781 152.382812 L 141.402344 152.382812 C 141.699219 152.382812 141.769531 152.511719 141.835938 152.742188 C 141.835938 152.773438 141.960938 153.835938 141.992188 154.03125 L 142.835938 154.03125 C 142.742188 153.835938 142.671875 153.277344 142.640625 152.9375 C 142.542969 152.410156 142.515625 152.050781 141.953125 152.015625 C 142.25 151.914062 142.746094 151.757812 142.746094 151 C 142.746094 149.914062 141.800781 149.917969 141.308594 149.917969 Z M 140.675781 150.578125 L 141.335938 150.578125 C 141.539062 150.578125 141.929688 150.570312 141.929688 151.132812 C 141.929688 151.363281 141.828125 151.730469 141.296875 151.726562 L 140.675781 151.726562 Z M 116.761719 153.925781 C 111.34375 153.925781 108.128906 156.234375 108.128906 160.042969 C 108.128906 164.210938 111.347656 165.328125 116.535156 165.855469 C 122.742188 166.476562 123.230469 167.367188 123.230469 168.582031 C 123.230469 170.714844 121.519531 171.601562 117.511719 171.601562 C 112.484375 171.601562 111.378906 170.355469 111.015625 167.859375 C 110.980469 167.59375 110.746094 167.398438 110.449219 167.398438 L 107.984375 167.398438 C 107.6875 167.398438 107.429688 167.632812 107.429688 167.964844 C 107.429688 171.148438 109.167969 174.960938 117.472656 174.960938 C 123.5625 174.957031 127.011719 172.59375 127.011719 168.449219 C 127.011719 164.347656 124.25 163.257812 118.40625 162.46875 C 112.496094 161.679688 111.910156 161.28125 111.910156 159.898438 C 111.910156 158.75 112.394531 157.246094 116.761719 157.246094 C 120.667969 157.246094 122.121094 158.101562 122.714844 160.726562 C 122.785156 160.992188 122.96875 161.148438 123.230469 161.148438 L 125.695312 161.148438 C 125.855469 161.148438 125.996094 161.085938 126.089844 160.992188 C 126.191406 160.863281 126.253906 160.730469 126.222656 160.570312 C 125.828125 156.035156 122.839844 153.925781 116.761719 153.925781 Z M 116.761719 153.925781 "/></g></g></svg>