<?xml version="1.0" encoding="UTF-8"?><svg xmlns="http://www.w3.org/2000/svg" xmlns:xlink="http://www.w3.org/1999/xlink" contentScriptType="text/ecmascript" width="224.87999pt" zoomAndPan="magnify" contentStyleType="text/css" viewBox="0 0 224.87999 225" height="225pt" preserveAspectRatio="xMidYMid meet" version="1.2"><defs><clipPath xml:id="clip1" id="clip1"><path d="M 2 9.898438 L 223 9.898438 L 223 224.9375 L 2 224.9375 Z M 2 9.898438 "/></clipPath></defs><g xml:id="surface1" id="surface1"><g clip-rule="nonzero" clip-path="url(#clip1)"><path style=" stroke:none;fill-rule:nonzero;fill:rgb(65.098572%,65.489197%,72.158813%);fill-opacity:1;" d="M 147.796875 224.1875 C 147.429688 224.28125 147.058594 224.328125 146.683594 224.328125 L 145.859375 223.574219 L 145.859375 217.164062 C 145.859375 211.191406 145.960938 202.152344 145.960938 191.808594 C 146.078125 185.617188 144.816406 179.726562 142.164062 174.136719 C 165.058594 169.992188 190.710938 157.609375 190.710938 113.253906 C 190.757812 110.347656 190.550781 107.460938 190.089844 104.59375 C 189.628906 101.726562 188.921875 98.917969 187.96875 96.175781 C 187.015625 93.433594 185.832031 90.792969 184.414062 88.257812 C 182.996094 85.722656 181.367188 83.332031 179.53125 81.085938 C 180.222656 78.5 180.695312 75.875 180.953125 73.214844 C 181.210938 70.550781 181.25 67.886719 181.066406 65.21875 C 180.882812 62.546875 180.484375 59.914062 179.863281 57.308594 C 179.246094 54.707031 178.421875 52.175781 177.382812 49.707031 C 177.109375 49.011719 176.699219 48.40625 176.152344 47.890625 C 175.605469 47.375 174.976562 47.003906 174.261719 46.773438 C 172.917969 46.394531 171.546875 46.222656 170.148438 46.261719 C 164.699219 46.746094 159.425781 47.984375 154.332031 49.976562 C 149.238281 51.972656 144.523438 54.640625 140.1875 57.980469 C 131.03125 55.699219 121.734375 54.535156 112.296875 54.484375 C 102.855469 54.503906 93.554688 55.660156 84.394531 57.960938 C 80.054688 54.617188 75.332031 51.945312 70.230469 49.953125 C 65.128906 47.960938 59.851562 46.722656 54.394531 46.242188 C 52.996094 46.203125 51.625 46.375 50.28125 46.753906 C 49.566406 46.984375 48.933594 47.359375 48.390625 47.875 C 47.84375 48.390625 47.433594 49 47.15625 49.699219 C 46.125 52.164062 45.296875 54.699219 44.683594 57.300781 C 44.066406 59.90625 43.667969 62.542969 43.492188 65.210938 C 43.3125 67.878906 43.351562 70.542969 43.613281 73.207031 C 43.875 75.867188 44.355469 78.492188 45.050781 81.074219 C 43.210938 83.320312 41.585938 85.714844 40.167969 88.246094 C 38.75 90.78125 37.5625 93.421875 36.609375 96.164062 C 35.652344 98.910156 34.945312 101.714844 34.484375 104.582031 C 34.023438 107.453125 33.8125 110.339844 33.859375 113.242188 C 33.859375 157.578125 59.492188 170.023438 82.335938 174.207031 C 81.070312 176.769531 80.140625 179.449219 79.546875 182.246094 C 76.789062 183.257812 73.941406 183.78125 71.003906 183.816406 C 68.976562 183.859375 67.007812 183.542969 65.09375 182.859375 C 63.183594 182.175781 61.457031 181.175781 59.914062 179.855469 C 59.613281 179.457031 59.257812 179.121094 58.839844 178.851562 C 58.152344 178.09375 57.507812 177.300781 56.902344 176.476562 L 56.703125 176.234375 C 56.648438 176.140625 56.589844 176.050781 56.523438 175.964844 L 55.679688 174.878906 C 55.40625 174.558594 55.152344 174.222656 54.917969 173.875 C 53.773438 171.878906 52.414062 170.046875 50.839844 168.371094 C 49.269531 166.699219 47.523438 165.230469 45.605469 163.964844 C 43.6875 162.703125 41.648438 161.679688 39.492188 160.894531 C 37.335938 160.113281 35.117188 159.589844 32.835938 159.328125 C 27.507812 159.328125 23.972656 161.207031 22.910156 164.644531 C 21.242188 170.023438 27.066406 174.035156 29.875 175.894531 C 32.3125 177.574219 34.402344 179.609375 36.144531 182.003906 C 37.886719 184.394531 39.183594 187.011719 40.03125 189.847656 C 40.644531 191.433594 41.375 192.957031 42.226562 194.425781 C 43.082031 195.894531 44.042969 197.285156 45.117188 198.601562 C 46.191406 199.914062 47.363281 201.136719 48.628906 202.265625 C 49.898438 203.394531 51.246094 204.414062 52.675781 205.328125 C 54.105469 206.242188 55.597656 207.035156 57.152344 207.710938 C 58.707031 208.386719 60.308594 208.9375 61.949219 209.355469 C 63.59375 209.777344 65.257812 210.066406 66.949219 210.222656 C 68.636719 210.378906 70.328125 210.398438 72.019531 210.285156 C 74.234375 210.28125 76.445312 210.136719 78.644531 209.855469 L 78.761719 223.617188 L 77.871094 224.339844 C 77.558594 224.339844 77.1875 224.339844 77.507812 224.421875 C 75.464844 223.738281 73.445312 222.996094 71.449219 222.195312 C 69.449219 221.390625 67.476562 220.53125 65.527344 219.613281 C 63.578125 218.695312 61.660156 217.722656 59.765625 216.691406 C 57.875 215.660156 56.015625 214.574219 54.1875 213.4375 C 52.359375 212.296875 50.566406 211.105469 48.808594 209.859375 C 47.050781 208.613281 45.332031 207.316406 43.652344 205.96875 C 41.96875 204.625 40.328125 203.230469 38.726562 201.785156 C 37.128906 200.34375 35.570312 198.855469 34.058594 197.320312 C 32.546875 195.785156 31.078125 194.207031 29.65625 192.589844 C 28.238281 190.96875 26.867188 189.304688 25.542969 187.605469 C 24.21875 185.902344 22.949219 184.164062 21.726562 182.390625 C 20.503906 180.613281 19.335938 178.800781 18.222656 176.957031 C 17.105469 175.113281 16.046875 173.238281 15.042969 171.328125 C 14.035156 169.421875 13.085938 167.488281 12.195312 165.523438 C 11.304688 163.5625 10.46875 161.574219 9.695312 159.5625 C 8.917969 157.550781 8.203125 155.519531 7.546875 153.464844 C 6.890625 151.410156 6.296875 149.339844 5.761719 147.25 C 5.226562 145.160156 4.753906 143.058594 4.339844 140.941406 C 3.929688 138.824219 3.582031 136.695312 3.292969 134.558594 C 3.007812 132.421875 2.78125 130.277344 2.621094 128.128906 C 2.460938 125.976562 2.363281 123.824219 2.328125 121.667969 C 2.292969 119.511719 2.320312 117.355469 2.410156 115.199219 C 2.503906 113.046875 2.65625 110.894531 2.875 108.75 C 3.089844 106.605469 3.371094 104.46875 3.714844 102.339844 C 4.054688 100.210938 4.460938 98.09375 4.925781 95.988281 C 5.394531 93.882812 5.921875 91.792969 6.511719 89.71875 C 7.097656 87.644531 7.75 85.585938 8.457031 83.550781 C 9.167969 81.515625 9.9375 79.5 10.761719 77.511719 C 11.589844 75.519531 12.476562 73.554688 13.417969 71.617188 C 14.359375 69.675781 15.359375 67.765625 16.414062 65.886719 C 17.46875 64.007812 18.578125 62.160156 19.738281 60.34375 C 20.902344 58.53125 22.117188 56.75 23.386719 55.007812 C 24.652344 53.261719 25.96875 51.558594 27.335938 49.890625 C 28.703125 48.226562 30.117188 46.601562 31.578125 45.019531 C 33.042969 43.433594 34.550781 41.894531 36.101562 40.402344 C 37.652344 38.90625 39.25 37.460938 40.886719 36.058594 C 42.523438 34.660156 44.199219 33.308594 45.914062 32.003906 C 47.632812 30.703125 49.386719 29.453125 51.175781 28.253906 C 52.964844 27.054688 54.789062 25.910156 56.644531 24.816406 C 58.5 23.726562 60.386719 22.691406 62.304688 21.707031 C 64.222656 20.726562 66.167969 19.804688 68.140625 18.9375 C 70.109375 18.070312 72.105469 17.261719 74.125 16.515625 C 76.144531 15.765625 78.183594 15.074219 80.242188 14.445312 C 82.300781 13.816406 84.378906 13.25 86.472656 12.742188 C 88.5625 12.234375 90.667969 11.789062 92.789062 11.40625 C 94.90625 11.023438 97.035156 10.699219 99.171875 10.441406 C 101.308594 10.183594 103.453125 9.988281 105.601562 9.855469 C 107.75 9.722656 109.902344 9.65625 112.054688 9.648438 C 114.207031 9.644531 116.359375 9.699219 118.511719 9.820312 C 120.660156 9.941406 122.804688 10.125 124.941406 10.371094 C 127.082031 10.621094 129.210938 10.929688 131.332031 11.300781 C 133.453125 11.671875 135.5625 12.105469 137.65625 12.601562 C 139.753906 13.097656 141.832031 13.65625 143.894531 14.273438 C 145.957031 14.890625 148 15.570312 150.023438 16.308594 C 152.046875 17.046875 154.046875 17.84375 156.023438 18.699219 C 157.996094 19.554688 159.949219 20.46875 161.871094 21.4375 C 163.792969 22.410156 165.6875 23.433594 167.546875 24.515625 C 169.410156 25.597656 171.242188 26.734375 173.035156 27.921875 C 174.832031 29.113281 176.59375 30.351562 178.316406 31.644531 C 180.039062 32.9375 181.722656 34.28125 183.367188 35.671875 C 185.011719 37.0625 186.617188 38.503906 188.175781 39.988281 C 189.734375 41.472656 191.25 43.003906 192.722656 44.578125 C 194.191406 46.15625 195.617188 47.773438 196.992188 49.429688 C 198.367188 51.089844 199.695312 52.785156 200.972656 54.523438 C 202.246094 56.261719 203.472656 58.03125 204.644531 59.839844 C 205.816406 61.652344 206.9375 63.492188 208 65.367188 C 209.066406 67.242188 210.074219 69.144531 211.027344 71.078125 C 211.980469 73.011719 212.875 74.972656 213.714844 76.960938 C 214.550781 78.945312 215.332031 80.953125 216.050781 82.988281 C 216.773438 85.019531 217.433594 87.070312 218.035156 89.140625 C 218.632812 91.214844 219.171875 93.300781 219.652344 95.402344 C 220.128906 97.503906 220.542969 99.621094 220.898438 101.746094 C 221.253906 103.875 221.542969 106.011719 221.773438 108.15625 C 222.003906 110.300781 222.167969 112.449219 222.269531 114.601562 C 222.375 116.757812 222.414062 118.914062 222.390625 121.070312 C 222.367188 123.226562 222.28125 125.378906 222.128906 127.53125 C 221.980469 129.683594 221.769531 131.828125 221.492188 133.964844 C 221.21875 136.105469 220.878906 138.234375 220.480469 140.351562 C 220.078125 142.472656 219.617188 144.578125 219.09375 146.667969 C 218.570312 148.761719 217.988281 150.835938 217.339844 152.894531 C 216.695312 154.949219 215.992188 156.988281 215.226562 159.003906 C 214.464844 161.019531 213.640625 163.011719 212.757812 164.980469 C 211.878906 166.945312 210.941406 168.886719 209.945312 170.800781 C 208.949219 172.710938 207.898438 174.59375 206.796875 176.445312 C 205.691406 178.296875 204.53125 180.113281 203.320312 181.894531 C 202.109375 183.679688 200.847656 185.421875 199.53125 187.132812 C 198.21875 188.839844 196.855469 190.507812 195.445312 192.136719 C 194.03125 193.765625 192.574219 195.351562 191.070312 196.894531 C 189.566406 198.4375 188.015625 199.933594 186.425781 201.386719 C 184.832031 202.835938 183.199219 204.242188 181.523438 205.597656 C 179.847656 206.953125 178.136719 208.257812 176.386719 209.511719 C 174.632812 210.765625 172.847656 211.96875 171.027344 213.117188 C 169.203125 214.269531 167.351562 215.363281 165.464844 216.40625 C 163.578125 217.445312 161.664062 218.429688 159.722656 219.359375 C 157.777344 220.285156 155.808594 221.15625 153.816406 221.96875 C 151.820312 222.78125 149.804688 223.535156 147.765625 224.230469 Z M 147.796875 224.1875 "/></g></g></svg>