<?xml version="1.0" encoding="UTF-8"?><svg xmlns="http://www.w3.org/2000/svg" xmlns:xlink="http://www.w3.org/1999/xlink" contentScriptType="text/ecmascript" width="224.87999pt" zoomAndPan="magnify" contentStyleType="text/css" viewBox="0 0 224.87999 225" height="225pt" preserveAspectRatio="xMidYMid meet" version="1.2"><defs><clipPath xml:id="clip1" id="clip1"><path d="M 9.953125 10.015625 L 147 10.015625 L 147 151 L 9.953125 151 Z M 9.953125 10.015625 "/></clipPath><clipPath xml:id="clip2" id="clip2"><path d="M 69 65 L 206.351562 65 L 206.351562 206.410156 L 69 206.410156 Z M 69 65 "/></clipPath></defs><g xml:id="surface1" id="surface1"><g clip-rule="nonzero" clip-path="url(#clip1)"><path style=" stroke:none;fill-rule:nonzero;fill:rgb(65.098572%,65.489197%,72.158813%);fill-opacity:1;" d="M 106.015625 10.015625 C 68.871094 10.015625 61.1875 29.226562 61.1875 40.328125 L 61.1875 61.246094 L 103.882812 61.246094 L 103.882812 65.515625 L 40.269531 65.515625 C 26.179688 65.515625 9.953125 76.617188 9.953125 108.210938 C 9.953125 139.804688 26.179688 150.90625 40.269531 150.90625 L 65.457031 150.90625 L 65.457031 125.289062 C 65.457031 115.898438 73.140625 108.210938 82.535156 108.210938 L 133.769531 108.210938 C 141.027344 108.210938 146.578125 102.660156 146.578125 95.402344 L 146.578125 40.328125 C 146.578125 25.382812 132.488281 10.015625 106.015625 10.015625 Z M 86.804688 48.441406 C 82.109375 48.441406 78.265625 44.597656 78.265625 39.902344 C 78.265625 35.203125 82.109375 31.363281 86.804688 31.363281 C 91.5 31.363281 95.34375 35.203125 95.34375 39.902344 C 95.34375 44.597656 91.5 48.441406 86.804688 48.441406 Z M 86.804688 48.441406 "/></g><g clip-rule="nonzero" clip-path="url(#clip2)"><path style=" stroke:none;fill-rule:nonzero;fill:rgb(65.098572%,65.489197%,72.158813%);fill-opacity:1;" d="M 110.285156 206.410156 C 147.429688 206.410156 155.117188 187.195312 155.117188 176.097656 L 155.117188 155.175781 L 112.421875 155.175781 L 112.421875 150.90625 L 176.035156 150.90625 C 190.125 150.90625 206.351562 139.804688 206.351562 108.210938 C 206.351562 76.617188 190.125 65.515625 176.035156 65.515625 L 150.847656 65.515625 L 150.847656 95.402344 C 150.847656 104.796875 143.160156 112.480469 133.769531 112.480469 L 82.535156 112.480469 C 75.277344 112.480469 69.726562 118.03125 69.726562 125.289062 L 69.726562 176.097656 C 69.726562 191.039062 83.816406 206.410156 110.285156 206.410156 Z M 129.5 167.984375 C 134.195312 167.984375 138.039062 171.828125 138.039062 176.523438 C 138.039062 181.21875 134.195312 185.0625 129.5 185.0625 C 124.804688 185.0625 120.960938 181.21875 120.960938 176.523438 C 120.960938 171.828125 124.804688 167.984375 129.5 167.984375 Z M 129.5 167.984375 "/></g></g></svg>