<?xml version="1.0" encoding="UTF-8"?><svg xmlns="http://www.w3.org/2000/svg" xmlns:xlink="http://www.w3.org/1999/xlink" contentScriptType="text/ecmascript" width="37.5pt" zoomAndPan="magnify" contentStyleType="text/css" viewBox="0 0 37.5 37.499999" height="37.499999pt" preserveAspectRatio="xMidYMid meet" version="1.2"><defs><clipPath xml:id="clip1" id="clip1"><path d="M 4.472656 4.472656 L 33.722656 4.472656 L 33.722656 33.722656 L 4.472656 33.722656 Z M 4.472656 4.472656 "/></clipPath></defs><g xml:id="surface1" id="surface1"><path style=" stroke:none;fill-rule:nonzero;fill:rgb(100%,78.039551%,74.119568%);fill-opacity:1;" d="M 30.191406 32.710938 L 8.003906 32.710938 C 6.613281 32.710938 5.484375 31.578125 5.480469 30.191406 L 5.480469 15.226562 C 5.488281 13.835938 6.621094 12.710938 8 12.707031 L 30.191406 12.707031 C 31.578125 12.710938 32.710938 13.84375 32.710938 15.230469 L 32.710938 30.191406 C 32.710938 31.578125 31.578125 32.710938 30.191406 32.710938 Z M 30.191406 32.710938 "/><g clip-rule="nonzero" clip-path="url(#clip1)"><path style=" stroke:none;fill-rule:nonzero;fill:rgb(16.859436%,33.329773%,37.249756%);fill-opacity:1;" d="M 30.191406 4.472656 L 8.003906 4.472656 C 6.054688 4.476562 4.476562 6.054688 4.472656 8.003906 L 4.472656 30.191406 C 4.476562 32.140625 6.054688 33.71875 8.003906 33.71875 L 30.191406 33.71875 C 32.140625 33.714844 33.71875 32.140625 33.71875 30.191406 L 33.722656 30.191406 L 33.722656 8.003906 C 33.71875 6.054688 32.140625 4.476562 30.191406 4.472656 Z M 31.703125 30.191406 C 31.699219 31.015625 31.015625 31.703125 30.191406 31.703125 L 8.003906 31.703125 C 7.175781 31.703125 6.492188 31.015625 6.488281 30.191406 L 6.488281 15.226562 C 6.492188 14.402344 7.179688 13.71875 8.003906 13.71875 L 30.191406 13.71875 C 31.015625 13.71875 31.699219 14.40625 31.703125 15.234375 Z M 31.703125 12.046875 C 31.242188 11.828125 30.730469 11.703125 30.191406 11.703125 L 8.003906 11.703125 C 7.460938 11.703125 6.949219 11.828125 6.488281 12.046875 L 6.492188 8.003906 C 6.492188 7.179688 7.179688 6.492188 8.003906 6.492188 L 30.191406 6.492188 C 31.015625 6.492188 31.699219 7.179688 31.703125 8.003906 Z M 31.703125 12.046875 "/></g><path style=" stroke:none;fill-rule:nonzero;fill:rgb(16.859436%,33.329773%,37.249756%);fill-opacity:1;" d="M 23.613281 6.824219 C 22.363281 6.824219 21.347656 7.839844 21.34375 9.09375 C 21.347656 10.347656 22.363281 11.363281 23.613281 11.363281 C 24.867188 11.363281 25.882812 10.347656 25.882812 9.09375 C 25.882812 7.839844 24.867188 6.824219 23.613281 6.824219 Z M 23.617188 10.058594 C 23.082031 10.058594 22.652344 9.625 22.648438 9.09375 C 22.652344 8.5625 23.082031 8.132812 23.617188 8.128906 C 24.144531 8.132812 24.578125 8.5625 24.582031 9.09375 C 24.578125 9.625 24.144531 10.058594 23.617188 10.058594 Z M 23.617188 10.058594 "/><path style=" stroke:none;fill-rule:nonzero;fill:rgb(16.859436%,33.329773%,37.249756%);fill-opacity:1;" d="M 28.617188 6.824219 C 27.363281 6.824219 26.347656 7.839844 26.34375 9.09375 C 26.347656 10.347656 27.363281 11.363281 28.617188 11.363281 C 29.867188 11.363281 30.882812 10.347656 30.882812 9.09375 C 30.882812 7.839844 29.867188 6.824219 28.617188 6.824219 Z M 28.617188 10.058594 C 28.082031 10.058594 27.652344 9.625 27.648438 9.09375 C 27.652344 8.5625 28.082031 8.132812 28.617188 8.128906 C 29.148438 8.132812 29.578125 8.5625 29.582031 9.09375 C 29.578125 9.625 29.148438 10.058594 28.617188 10.058594 Z M 28.617188 10.058594 "/></g></svg>