<?xml version="1.0" encoding="UTF-8"?><svg xmlns="http://www.w3.org/2000/svg" xmlns:xlink="http://www.w3.org/1999/xlink" contentScriptType="text/ecmascript" width="37.5pt" zoomAndPan="magnify" contentStyleType="text/css" viewBox="0 0 37.5 37.499999" height="37.499999pt" preserveAspectRatio="xMidYMid meet" version="1.2"><defs><clipPath xml:id="clip1" id="clip1"><path d="M 8.871094 2 L 28.371094 2 L 28.371094 35.625 L 8.871094 35.625 Z M 8.871094 2 "/></clipPath></defs><g xml:id="surface1" id="surface1"><path style=" stroke:none;fill-rule:nonzero;fill:rgb(100%,78.039551%,74.119568%);fill-opacity:1;" d="M 24.722656 28.652344 L 12.519531 28.652344 C 11.082031 28.652344 9.914062 27.46875 9.914062 26.015625 L 9.914062 9.222656 C 9.914062 7.769531 11.082031 6.585938 12.519531 6.582031 L 24.722656 6.582031 C 26.15625 6.585938 27.324219 7.769531 27.328125 9.222656 L 27.328125 26.011719 C 27.324219 27.472656 26.15625 28.652344 24.722656 28.652344 Z M 24.722656 28.652344 "/><g clip-rule="nonzero" clip-path="url(#clip1)"><path style=" stroke:none;fill-rule:nonzero;fill:rgb(16.859436%,33.329773%,37.249756%);fill-opacity:1;" d="M 24.722656 2.371094 L 12.519531 2.371094 C 10.503906 2.375 8.875 4.027344 8.871094 6.066406 L 8.871094 31.433594 C 8.875 33.472656 10.503906 35.128906 12.519531 35.128906 L 24.722656 35.128906 C 26.734375 35.128906 28.367188 33.472656 28.371094 31.433594 L 28.371094 6.066406 C 28.367188 4.027344 26.734375 2.375 24.722656 2.371094 Z M 12.519531 4.484375 L 24.722656 4.484375 C 25.511719 4.484375 26.167969 5.105469 26.265625 5.882812 C 25.796875 5.660156 25.273438 5.527344 24.722656 5.527344 L 12.519531 5.527344 C 11.964844 5.527344 11.445312 5.65625 10.972656 5.882812 C 11.070312 5.105469 11.730469 4.484375 12.519531 4.484375 Z M 26.285156 31.433594 C 26.285156 32.296875 25.574219 33.015625 24.722656 33.019531 L 12.519531 33.019531 C 11.664062 33.015625 10.957031 32.296875 10.953125 31.433594 L 10.953125 29.347656 C 11.429688 29.578125 11.957031 29.710938 12.519531 29.710938 L 24.722656 29.710938 C 25.28125 29.710938 25.808594 29.578125 26.285156 29.347656 Z M 26.285156 26.011719 C 26.285156 26.875 25.574219 27.597656 24.722656 27.597656 L 12.519531 27.597656 C 11.664062 27.597656 10.957031 26.875 10.953125 26.011719 L 10.953125 9.222656 C 10.957031 8.359375 11.664062 7.640625 12.519531 7.640625 L 24.722656 7.640625 C 25.574219 7.640625 26.285156 8.359375 26.285156 9.222656 Z M 20.640625 30.246094 L 16.601562 30.246094 C 16.3125 30.246094 16.078125 30.484375 16.078125 30.773438 L 16.078125 31.832031 C 16.078125 32.125 16.3125 32.363281 16.601562 32.363281 L 20.644531 32.363281 C 20.929688 32.363281 21.164062 32.125 21.164062 31.832031 L 21.164062 30.773438 C 21.164062 30.484375 20.929688 30.246094 20.640625 30.246094 Z M 20.640625 30.246094 "/></g></g></svg>