<?xml version="1.0" encoding="UTF-8"?><svg xmlns="http://www.w3.org/2000/svg" xmlns:xlink="http://www.w3.org/1999/xlink" contentScriptType="text/ecmascript" width="37.5pt" zoomAndPan="magnify" contentStyleType="text/css" viewBox="0 0 37.5 37.499999" height="37.499999pt" preserveAspectRatio="xMidYMid meet" version="1.2"><defs><clipPath xml:id="clip1" id="clip1"><path d="M 6.113281 3.75 L 31.613281 3.75 L 31.613281 36 L 6.113281 36 Z M 6.113281 3.75 "/></clipPath></defs><g xml:id="surface1" id="surface1"><path style=" stroke:none;fill-rule:nonzero;fill:rgb(100%,78.039551%,74.119568%);fill-opacity:1;" d="M 9.441406 5 L 28.285156 5 L 28.285156 30.050781 L 9.441406 30.050781 Z M 9.441406 5 "/><g clip-rule="nonzero" clip-path="url(#clip1)"><path style=" stroke:none;fill-rule:nonzero;fill:rgb(16.859436%,33.329773%,37.249756%);fill-opacity:1;" d="M 30.417969 6.203125 C 31.078125 6.203125 31.617188 5.660156 31.617188 5 C 31.617188 4.335938 31.074219 3.796875 30.417969 3.796875 L 7.316406 3.796875 C 6.652344 3.796875 6.113281 4.335938 6.113281 5 C 6.113281 5.660156 6.652344 6.203125 7.316406 6.203125 L 8.242188 6.203125 L 8.242188 28.847656 L 7.316406 28.847656 C 6.652344 28.847656 6.113281 29.390625 6.113281 30.050781 C 6.113281 30.710938 6.652344 31.253906 7.316406 31.253906 L 17.679688 31.253906 C 17.675781 31.304688 17.664062 31.355469 17.664062 31.40625 L 17.664062 34.75 C 17.664062 35.414062 18.207031 35.953125 18.863281 35.953125 C 19.527344 35.953125 20.066406 35.414062 20.066406 34.75 L 20.066406 31.40625 C 20.066406 31.355469 20.054688 31.304688 20.050781 31.253906 L 30.414062 31.253906 C 31.074219 31.253906 31.613281 30.710938 31.613281 30.050781 C 31.613281 29.390625 31.074219 28.847656 30.414062 28.847656 L 29.488281 28.847656 L 29.488281 6.203125 Z M 27.089844 28.847656 L 10.644531 28.847656 L 10.644531 6.203125 L 27.089844 6.203125 Z M 27.089844 28.847656 "/></g></g></svg>