<?xml version="1.0" encoding="UTF-8"?><svg xmlns="http://www.w3.org/2000/svg" xmlns:xlink="http://www.w3.org/1999/xlink" contentScriptType="text/ecmascript" width="150pt" zoomAndPan="magnify" contentStyleType="text/css" viewBox="0 0 150 74.999997" height="74.999997pt" preserveAspectRatio="xMidYMid meet" version="1.2"><defs><g/></defs><g xml:id="surface1" id="surface1"><g style="fill:rgb(0%,0%,0%);fill-opacity:1;"><g transform="translate(5.222844, 44.531619)"><path style="stroke:none;" d="M 12.578125 -17.792969 C 11.84375 -17.578125 11.113281 -16.683594 10.59375 -16.164062 C 10.265625 -15.855469 9.933594 -15.527344 9.628906 -15.171875 C 9.414062 -14.9375 8.871094 -14.464844 8.824219 -14.132812 C 8.847656 -14.109375 8.847656 -14.109375 8.871094 -14.109375 L 8.542969 -13.6875 C 8.519531 -13.664062 8.777344 -14.039062 8.777344 -14.039062 C 8.660156 -14.015625 8.449219 -13.566406 8.449219 -13.566406 C 7.785156 -12.71875 7.054688 -11.941406 6.441406 -11.042969 C 5.757812 -10.027344 5.191406 -8.992188 4.648438 -7.90625 C 4.957031 -9.039062 5.355469 -10.148438 5.804688 -11.230469 C 5.921875 -11.515625 7.21875 -14.582031 7.269531 -14.558594 C 7.195312 -14.582031 6.039062 -11.988281 5.96875 -11.84375 C 6.511719 -13.167969 7.101562 -14.464844 7.785156 -15.714844 C 7.738281 -15.621094 7.691406 -15.503906 7.714844 -15.503906 C 7.808594 -15.480469 8.28125 -16.398438 8.210938 -16.421875 L 8.140625 -16.375 C 8.28125 -16.636719 8.351562 -16.777344 8.210938 -17.15625 C 8.070312 -17.53125 7.714844 -18.191406 7.21875 -17.980469 C 6.914062 -17.863281 6.652344 -17.296875 6.535156 -17.058594 C 6.464844 -16.941406 6.441406 -16.753906 6.371094 -16.660156 C 6.277344 -16.519531 6.113281 -16.445312 5.96875 -16.257812 C 5.664062 -15.785156 5.449219 -15.21875 5.238281 -14.699219 C 5.121094 -14.417969 3.824219 -11.609375 3.871094 -11.585938 C 3.917969 -11.609375 3.941406 -11.65625 3.964844 -11.703125 C 3.894531 -11.492188 3.800781 -11.277344 3.703125 -11.066406 C 3.679688 -11.089844 3.777344 -11.253906 3.75 -11.253906 C 3.515625 -11.304688 2.808594 -9.34375 2.761719 -9.15625 C 2.667969 -8.707031 2.546875 -8.304688 2.359375 -7.859375 C 2.242188 -7.574219 2.125 -7.292969 2.03125 -7.007812 C 2.03125 -6.984375 1.910156 -6.394531 2.003906 -6.605469 C 2.003906 -6.535156 1.980469 -6.488281 1.957031 -6.417969 C 1.957031 -6.441406 1.957031 -6.488281 1.933594 -6.511719 C 1.886719 -6.488281 1.769531 -5.851562 1.746094 -5.828125 C 1.652344 -5.59375 1.511719 -5.378906 1.414062 -5.144531 C 1.109375 -4.484375 0.921875 -3.75 0.753906 -3.042969 L 0.257812 -0.636719 C 0.164062 -0.1875 -0.210938 0.824219 0.140625 1.273438 C 0.140625 1.226562 0.140625 1.203125 0.164062 1.179688 C 0.164062 1.203125 0.164062 1.25 0.1875 1.296875 C 0.402344 2.078125 1.675781 1.839844 2.101562 1.390625 C 2.101562 1.4375 2.125 1.464844 2.148438 1.488281 C 2.3125 0.164062 2.785156 -1.179688 3.257812 -2.429688 C 3.445312 -2.972656 3.632812 -3.871094 4.011719 -4.292969 C 4.035156 -4.53125 4.152344 -4.601562 4.34375 -4.484375 C 4.484375 -4.460938 4.648438 -4.4375 4.789062 -4.4375 C 4.933594 -4.414062 5.121094 -4.414062 5.285156 -4.4375 C 6.277344 -4.601562 7.339844 -5.261719 8.1875 -5.78125 C 8.519531 -5.96875 8.753906 -6.253906 9.0625 -6.417969 C 9.390625 -6.605469 9.722656 -6.703125 10.050781 -6.960938 C 10.949219 -7.644531 11.679688 -8.425781 12.386719 -9.296875 C 13.097656 -10.148438 13.710938 -11.019531 14.132812 -12.058594 C 14.371094 -12.578125 14.558594 -13.144531 14.722656 -13.710938 C 14.773438 -13.921875 14.9375 -14.230469 14.890625 -14.441406 C 14.890625 -14.441406 14.820312 -14.277344 14.773438 -14.15625 C 14.84375 -14.558594 14.890625 -14.9375 14.867188 -15.363281 C 14.890625 -15.265625 14.9375 -15.125 14.914062 -15.101562 C 14.960938 -15.125 14.9375 -15.433594 14.9375 -15.574219 C 14.9375 -15.527344 14.914062 -15.738281 14.9375 -15.667969 C 14.84375 -16.800781 13.804688 -18.144531 12.578125 -17.792969 Z M 12.554688 -14.914062 C 12.53125 -14.820312 12.53125 -14.84375 12.554688 -14.890625 C 12.433594 -13.261719 11.515625 -11.65625 10.59375 -10.359375 C 10.121094 -9.675781 9.582031 -9.039062 9.015625 -8.425781 C 8.753906 -8.164062 8.472656 -7.90625 8.1875 -7.667969 C 7.976562 -7.457031 7.527344 -7.21875 7.316406 -6.960938 C 7.503906 -7.148438 7.929688 -7.386719 8.117188 -7.527344 C 8.496094 -7.859375 8.871094 -8.234375 9.226562 -8.589844 C 9.792969 -9.203125 10.335938 -9.839844 10.808594 -10.523438 C 9.367188 -8.375 7.386719 -6.511719 5.003906 -5.523438 C 5.191406 -5.640625 5.664062 -5.875 5.664062 -5.898438 C 5.617188 -5.945312 4.671875 -5.523438 4.578125 -5.472656 C 4.882812 -6.089844 5.191406 -6.703125 5.523438 -7.316406 C 5.617188 -7.457031 6.371094 -8.894531 6.371094 -8.894531 C 6.324219 -8.894531 6.277344 -8.871094 6.253906 -8.800781 C 7.292969 -10.476562 8.660156 -12.152344 9.933594 -13.6875 C 10.335938 -14.15625 12.671875 -17.203125 12.554688 -14.9375 Z M 0.945312 -2.714844 C 1.179688 -3.726562 1.675781 -4.414062 1.980469 -5.332031 C 1.558594 -3.964844 1.039062 -2.570312 0.636719 -1.226562 C 0.730469 -1.699219 0.824219 -2.289062 0.945312 -2.714844 Z M 0.472656 0.308594 C 0.449219 0.402344 0.28125 0.519531 0.257812 0.636719 C 0.332031 0.234375 0.402344 -0.117188 0.496094 -0.496094 C 0.449219 -0.234375 0.519531 0.046875 0.472656 0.308594 Z M 5.664062 -11.066406 L 5.167969 -9.839844 L 5.640625 -11.042969 Z M 5.6875 -11.160156 C 5.6875 -11.113281 5.664062 -11.113281 5.664062 -11.089844 C 5.664062 -11.113281 5.664062 -11.113281 5.6875 -11.160156 Z M 5.734375 -11.253906 L 5.710938 -11.230469 L 5.734375 -11.277344 Z M 6.039062 -8.472656 C 6.039062 -8.496094 6.0625 -8.496094 6.0625 -8.519531 C 6.0625 -8.496094 6.039062 -8.472656 6.039062 -8.472656 Z M 6.039062 -8.472656 "/></g></g><g style="fill:rgb(0%,0%,0%);fill-opacity:1;"><g transform="translate(17.138546, 44.531619)"><path style="stroke:none;" d="M 11.160156 -5.757812 C 11.089844 -6.207031 10.003906 -4.957031 9.957031 -4.90625 C 9.273438 -4.175781 8.613281 -3.375 7.808594 -2.738281 C 7.433594 -2.453125 7.269531 -2.289062 7.292969 -2.855469 C 7.316406 -3.351562 7.503906 -3.871094 7.644531 -4.316406 C 7.714844 -4.554688 8.1875 -5.449219 8.046875 -5.617188 C 8.023438 -5.640625 7.976562 -5.570312 7.929688 -5.523438 C 8.257812 -6.183594 9.0625 -7.316406 8 -7.621094 C 6.796875 -7.953125 6.183594 -6.652344 5.664062 -5.875 C 5.167969 -5.167969 4.695312 -4.484375 4.128906 -3.847656 C 3.703125 -3.351562 3.042969 -2.40625 2.359375 -2.21875 C 1.722656 -2.003906 2.148438 -3.042969 2.242188 -3.398438 C 2.3125 -3.585938 3.160156 -5.78125 3.210938 -5.757812 C 3.160156 -5.757812 3.113281 -5.734375 3.066406 -5.664062 C 3.328125 -6.230469 3.609375 -6.796875 3.917969 -7.339844 C 3.847656 -7.195312 3.777344 -6.960938 3.777344 -6.960938 C 3.894531 -6.9375 4.460938 -8.09375 4.414062 -8.09375 C 4.367188 -8.070312 4.316406 -8.023438 4.269531 -7.953125 C 4.460938 -8.28125 4.695312 -8.449219 4.269531 -8.777344 C 3.847656 -9.109375 3.089844 -9.179688 2.667969 -8.800781 C 2.148438 -8.375 1.816406 -7.621094 1.558594 -7.03125 C 1.390625 -6.703125 1.109375 -6.511719 0.945312 -6.136719 C 0.613281 -5.402344 0.425781 -4.671875 0.234375 -3.917969 C 0.046875 -3.1875 -0.0703125 -2.429688 0.046875 -1.675781 C 0.117188 -1.34375 0.234375 -0.96875 0.496094 -0.730469 C 0.566406 -0.683594 1.25 -0.425781 1.203125 -0.589844 C 1.15625 -0.589844 1.109375 -0.589844 1.085938 -0.613281 C 1.34375 -0.613281 1.605469 -0.730469 1.839844 -0.875 C 1.863281 -0.847656 1.652344 -0.753906 1.652344 -0.730469 C 1.886719 -0.425781 3.679688 -2.242188 3.847656 -2.453125 C 4.4375 -3.210938 5.027344 -3.941406 5.640625 -4.671875 C 5.332031 -3.847656 4.8125 -2.714844 5.308594 -1.816406 C 5.59375 -1.34375 6.136719 -1.085938 6.652344 -1.132812 C 7.761719 -1.203125 8.753906 -2.40625 9.4375 -3.136719 C 9.886719 -3.632812 10.335938 -4.152344 10.664062 -4.71875 C 10.808594 -4.957031 11.183594 -5.472656 11.160156 -5.757812 Z M 7.574219 -5.285156 C 7.527344 -5.144531 7.503906 -4.957031 7.433594 -4.835938 C 7.433594 -4.8125 7.410156 -4.789062 7.386719 -4.765625 C 7.410156 -4.789062 7.410156 -4.8125 7.410156 -4.835938 C 7.21875 -5.425781 7.929688 -6.183594 8.164062 -6.773438 C 7.976562 -6.253906 7.738281 -5.78125 7.574219 -5.285156 Z M 1.957031 -2.242188 C 1.816406 -2.925781 2.3125 -3.871094 2.570312 -4.507812 C 2.242188 -3.585938 1.910156 -2.453125 1.957031 -2.242188 Z M 5.640625 -4.554688 C 5.640625 -4.648438 5.664062 -4.71875 5.734375 -4.765625 C 5.6875 -4.695312 5.664062 -4.625 5.640625 -4.554688 Z M 5.640625 -4.554688 "/></g></g><g style="fill:rgb(0%,0%,0%);fill-opacity:1;"><g transform="translate(26.576725, 44.531619)"><path style="stroke:none;" d="M 7.644531 -5.191406 C 7.761719 -5.332031 7.808594 -5.59375 7.738281 -5.78125 C 7.550781 -6.300781 6.960938 -5.664062 6.726562 -5.472656 C 6.371094 -5.214844 5.96875 -4.980469 5.59375 -4.71875 C 4.460938 -3.964844 3.398438 -3.136719 2.335938 -2.289062 C 2.761719 -3.492188 3.539062 -4.554688 4.082031 -5.664062 C 4.625 -6.75 2.714844 -7.621094 2.125 -6.75 C 2.054688 -6.628906 2.03125 -6.347656 1.957031 -6.183594 C 1.816406 -5.804688 1.699219 -5.378906 1.558594 -4.980469 C 1.296875 -4.152344 1.039062 -3.304688 0.753906 -2.476562 L 0.308594 -1.085938 C 0.210938 -0.777344 0.140625 -0.542969 -0.0703125 -0.332031 C -0.234375 -0.140625 -0.472656 0.0234375 -0.660156 0.210938 C -1.4375 0.898438 -2.21875 1.605469 -2.925781 2.335938 C -3.445312 2.855469 -3.894531 3.445312 -4.292969 4.011719 C -4.789062 4.71875 -5.355469 5.355469 -5.78125 6.113281 C -6.558594 7.503906 -6.960938 9.414062 -5.027344 10.121094 C -4.175781 10.429688 -3.257812 10.242188 -2.59375 9.652344 C -2.054688 9.15625 -1.722656 8.375 -1.367188 7.738281 C -0.921875 6.960938 -0.519531 6.183594 -0.210938 5.332031 C 0.210938 4.292969 0.566406 3.210938 0.945312 2.148438 C 1.320312 1.132812 1.511719 -0.472656 2.359375 -1.179688 C 3.28125 -1.957031 4.222656 -2.714844 5.191406 -3.445312 C 5.945312 -4.035156 6.726562 -4.695312 7.574219 -5.167969 C 7.527344 -5.167969 7.503906 -5.191406 7.480469 -5.238281 C 7.597656 -5.308594 7.550781 -5.238281 7.644531 -5.191406 Z M -1.558594 4.152344 L -1.558594 4.082031 C -1.605469 4.175781 -1.652344 4.367188 -1.675781 4.390625 C -2.195312 5.6875 -2.738281 6.960938 -3.492188 8.117188 C -3.726562 8.472656 -4.199219 9.179688 -4.71875 9.0625 C -5.285156 8.917969 -5.378906 8.09375 -5.308594 7.621094 C -5.097656 6.277344 -4.035156 5.097656 -3.210938 4.082031 C -2.359375 3.042969 -1.488281 2.101562 -0.472656 1.226562 L -1.511719 4.035156 C -1.511719 4.011719 -1.511719 4.035156 -1.558594 4.152344 Z M 3.328125 -8.566406 C 3.351562 -8.589844 3.398438 -8.472656 3.421875 -8.496094 C 3.585938 -8.566406 3.65625 -8.613281 3.824219 -8.730469 C 4.058594 -8.964844 4.246094 -9.25 4.484375 -9.460938 C 4.554688 -9.53125 4.390625 -9.484375 4.414062 -9.484375 C 4.578125 -9.675781 4.765625 -9.582031 4.980469 -9.886719 C 5.144531 -10.097656 5.191406 -10.546875 5.261719 -10.714844 L 5.308594 -10.714844 C 5.355469 -10.972656 5.523438 -10.949219 5.664062 -11.207031 C 5.78125 -11.445312 5.757812 -11.773438 5.664062 -12.035156 C 5.617188 -12.128906 5.570312 -12.222656 5.496094 -12.292969 C 5.167969 -12.648438 4.34375 -12.695312 3.871094 -12.578125 C 3.75 -12.554688 3.585938 -12.53125 3.46875 -12.460938 C 3.375 -12.410156 3.210938 -12.316406 3.1875 -12.175781 C 3.1875 -12.105469 3.28125 -11.703125 3.398438 -11.871094 C 3.421875 -11.894531 3.398438 -11.941406 3.375 -11.964844 C 3.609375 -11.796875 3.632812 -11.796875 3.609375 -11.46875 C 3.609375 -11.328125 3.351562 -10.195312 3.136719 -9.652344 L 3.351562 -10.027344 C 3.1875 -9.652344 3.019531 -9.296875 2.808594 -8.964844 C 2.949219 -9.296875 2.691406 -8.894531 2.691406 -8.847656 C 2.570312 -8.871094 2.546875 -8.707031 2.570312 -8.613281 C 2.667969 -8.09375 3.113281 -8.519531 3.328125 -8.566406 Z M -0.117188 2.382812 C -0.164062 2.761719 -0.472656 3.136719 -0.636719 3.515625 C -0.566406 3.328125 -0.496094 2.808594 -0.355469 2.691406 C -0.257812 2.621094 -0.210938 2.476562 -0.117188 2.382812 Z M -0.449219 4.34375 L -0.519531 4.484375 L -0.519531 4.460938 L -0.589844 4.625 L -0.660156 4.742188 L -0.730469 4.933594 L -0.800781 5.144531 C -0.777344 5.027344 -0.777344 4.90625 -0.730469 4.789062 C -0.683594 4.554688 -0.542969 4.367188 -0.449219 4.175781 L -0.449219 4.292969 L -0.355469 4.011719 C -0.355469 3.988281 -0.355469 3.964844 -0.332031 3.941406 C -0.355469 4.082031 -0.402344 4.222656 -0.449219 4.34375 Z M -0.234375 3.703125 C -0.164062 3.445312 -0.09375 3.136719 0.046875 2.996094 L 0.09375 2.949219 L 0.0234375 3.089844 C -0.046875 3.304688 -0.140625 3.5625 -0.234375 3.777344 L -0.234375 3.75 L -0.257812 3.75 C -0.257812 3.726562 -0.234375 3.703125 -0.234375 3.703125 Z M 2.949219 -9.34375 C 2.996094 -9.320312 3.042969 -9.390625 3.089844 -9.558594 C 3.019531 -9.4375 2.949219 -9.34375 2.949219 -9.34375 Z M -0.140625 3.492188 L -0.09375 3.351562 C -0.117188 3.398438 -0.140625 3.445312 -0.140625 3.492188 Z M -0.0703125 3.257812 C -0.09375 3.28125 -0.09375 3.304688 -0.09375 3.351562 Z M -0.257812 3.800781 L -0.28125 3.800781 L -0.257812 3.777344 Z M 2.738281 -8.847656 L 2.738281 -8.824219 L 2.714844 -8.824219 C 2.714844 -8.824219 2.738281 -8.824219 2.738281 -8.847656 Z M 2.738281 -8.847656 "/></g></g><g style="fill:rgb(0%,0%,0%);fill-opacity:1;"><g transform="translate(32.617161, 44.531619)"><path style="stroke:none;" d="M 12.011719 -5.6875 C 11.988281 -6.207031 11.5625 -5.757812 11.421875 -5.570312 C 11.113281 -5.121094 10.832031 -4.648438 10.546875 -4.199219 C 9.910156 -3.234375 9.273438 -2.265625 8.542969 -1.34375 C 6.113281 1.652344 7.808594 -3.679688 7.621094 -3.632812 C 7.527344 -3.609375 7.457031 -3.257812 7.433594 -3.1875 C 7.621094 -4.035156 7.976562 -5.050781 8.425781 -5.875 C 8.683594 -6.394531 8.992188 -6.820312 8.519531 -7.386719 C 7.644531 -8.449219 6.628906 -7.480469 6.0625 -6.75 C 5.828125 -7.644531 5.355469 -8.964844 4.199219 -8.964844 C 3.679688 -8.964844 3.375 -8.707031 3.019531 -8.402344 C 2.808594 -8.257812 2.644531 -8.234375 2.453125 -8.070312 C 2.148438 -7.859375 1.933594 -7.527344 1.722656 -7.246094 C 0.921875 -6.0625 0.355469 -4.578125 0.09375 -3.210938 C -0.0234375 -2.546875 -0.0703125 -1.816406 0.117188 -1.15625 C 0.234375 -0.777344 0.660156 0.0703125 1.203125 0 C 1.226562 0 1.179688 -0.0234375 1.109375 -0.0703125 C 1.4375 0.0234375 1.816406 -0.0234375 2.101562 -0.210938 C 2.125 -0.164062 1.839844 -0.046875 1.839844 -0.046875 C 2.101562 0.355469 4.035156 -1.980469 4.175781 -2.195312 C 4.484375 -2.621094 4.695312 -3.066406 4.980469 -3.515625 C 5.191406 -3.847656 5.523438 -4.269531 5.757812 -4.625 C 5.734375 -4.460938 5.734375 -4.246094 5.734375 -4.246094 C 5.308594 -2.902344 4.90625 -1.4375 5.472656 -0.046875 C 5.734375 0.660156 6.371094 1.320312 7.171875 1.179688 C 7.882812 1.0625 8.472656 0.378906 8.894531 -0.164062 C 9.414062 -0.777344 9.863281 -1.464844 10.3125 -2.171875 C 10.6875 -2.808594 11.042969 -3.445312 11.351562 -4.152344 C 11.539062 -4.601562 12.058594 -5.144531 12.011719 -5.6875 Z M 5.238281 -5.523438 C 5.121094 -5.355469 5.003906 -5.191406 4.90625 -5.027344 L 4.292969 -4.152344 C 3.894531 -3.5625 3.46875 -2.996094 3.019531 -2.453125 C 2.902344 -2.289062 2.335938 -1.558594 2.101562 -1.628906 C 1.746094 -1.746094 2.125 -2.972656 2.171875 -3.160156 C 2.242188 -3.492188 3.492188 -7.125 3.824219 -7.195312 C 3.398438 -7.21875 2.03125 -2.949219 1.957031 -2.59375 C 2.148438 -3.75 2.570312 -4.882812 3.042969 -5.945312 C 3.304688 -6.488281 3.894531 -7.929688 4.671875 -7.929688 C 5.097656 -7.929688 5.191406 -7.054688 5.261719 -6.773438 C 5.238281 -6.820312 5.027344 -7.503906 5.003906 -7.480469 C 4.882812 -7.386719 5.355469 -6.089844 5.355469 -5.898438 C 5.355469 -5.710938 5.355469 -5.710938 5.238281 -5.523438 Z M 5.78125 -4.367188 C 5.78125 -4.367188 5.851562 -4.695312 5.875 -4.765625 L 5.992188 -4.933594 Z M 5.425781 -5.828125 L 5.425781 -6.0625 C 5.496094 -5.96875 5.496094 -5.898438 5.425781 -5.828125 Z M 5.425781 -5.828125 "/></g></g><g style="fill:rgb(0%,0%,0%);fill-opacity:1;"><g transform="translate(42.904777, 44.531619)"><path style="stroke:none;" d=""/></g></g><g style="fill:rgb(0%,0%,0%);fill-opacity:1;"><g transform="translate(49.511501, 44.531619)"><path style="stroke:none;" d="M 2.21875 -1.886719 L 2.195312 -1.863281 C 2.21875 -1.886719 2.21875 -1.886719 2.21875 -1.910156 L 2.21875 -2.03125 C 2.476562 -3.421875 2.972656 -4.789062 3.46875 -6.136719 C 3.988281 -7.550781 4.484375 -8.941406 5.144531 -10.289062 C 5.757812 -11.5625 6.464844 -12.8125 7.269531 -13.96875 C 7.976562 -15.03125 8.824219 -16.1875 9.910156 -16.894531 C 10.242188 -16.988281 10.570312 -17.34375 10.996094 -17.273438 C 11.421875 -17.203125 11.421875 -16.753906 11.328125 -16.328125 C 11.445312 -16.660156 11.515625 -17.011719 11.230469 -17.25 C 10.855469 -17.53125 10.121094 -17.085938 9.816406 -16.871094 C 9.675781 -16.824219 9.53125 -16.730469 9.414062 -16.636719 C 9.484375 -16.707031 9.582031 -16.777344 9.699219 -16.847656 L 9.582031 -16.800781 L 9.910156 -16.988281 C 10.289062 -17.203125 11.136719 -17.675781 11.421875 -17.058594 C 11.632812 -16.566406 11.304688 -15.738281 11.136719 -15.265625 C 10.832031 -14.464844 10.453125 -13.710938 10.050781 -12.953125 C 10.121094 -13.121094 10.40625 -13.757812 10.40625 -13.757812 C 10.242188 -13.78125 9.484375 -12.035156 9.34375 -11.988281 L 9.367188 -11.988281 C 9.273438 -11.917969 9.203125 -11.84375 9.203125 -11.820312 C 9.15625 -11.539062 9.484375 -11.609375 9.675781 -11.632812 C 10.476562 -11.726562 11.515625 -12.410156 12.035156 -13 C 12.601562 -13.640625 12.8125 -14.605469 12.8125 -15.457031 L 12.8125 -15.480469 C 12.789062 -17.085938 11.679688 -19.113281 9.769531 -18.996094 C 8.707031 -18.949219 7.714844 -17.910156 7.03125 -17.203125 C 6.535156 -16.636719 6.0625 -16.023438 5.640625 -15.410156 C 5.449219 -15.125 5.261719 -14.867188 5.097656 -14.582031 C 4.90625 -14.324219 4.53125 -13.921875 4.4375 -13.617188 C 4.4375 -13.617188 4.554688 -13.757812 4.648438 -13.851562 C 4.390625 -13.449219 4.152344 -13.027344 3.917969 -12.625 C 3.894531 -12.648438 4.058594 -12.976562 4.058594 -12.976562 C 3.847656 -13.027344 2.878906 -11.089844 2.761719 -10.878906 C 2.335938 -10.097656 1.957031 -9.320312 1.699219 -8.496094 C 1.414062 -7.574219 1.039062 -6.703125 0.753906 -5.804688 C 0.613281 -5.355469 0.472656 -4.933594 0.378906 -4.484375 C 0.332031 -4.269531 0.28125 -4.082031 0.257812 -3.871094 C 0.257812 -3.847656 0.210938 -3.46875 0.257812 -3.515625 C 0.210938 -3.351562 0.210938 -3.136719 0.1875 -2.972656 C 0.1875 -2.972656 0.1875 -3.375 0.210938 -3.421875 C 0.117188 -3.304688 0.1875 -2.855469 0.164062 -2.808594 C 0.046875 -1.910156 -0.140625 -0.96875 0.164062 -0.09375 C 0.566406 1.109375 1.558594 2.101562 2.644531 2.738281 C 3.210938 3.089844 3.964844 3.492188 4.671875 3.445312 C 5.496094 3.398438 6.300781 2.714844 6.914062 2.21875 C 8.707031 0.707031 10.335938 -1.414062 10.640625 -3.824219 C 10.664062 -3.988281 10.785156 -4.8125 10.5 -4.835938 C 10.242188 -4.859375 10.050781 -4.292969 9.957031 -4.152344 C 9.25 -2.996094 8.425781 -1.910156 7.503906 -0.921875 C 6.558594 0.117188 5.378906 1.226562 3.941406 1.558594 C 3.75 1.605469 3.539062 1.628906 3.328125 1.628906 C 3.042969 1.605469 2.785156 1.535156 2.570312 1.320312 C 2.453125 1.203125 2.335938 0.800781 2.195312 0.730469 C 2.195312 0.613281 2.171875 0.496094 2.148438 0.425781 L 2.078125 0.28125 C 2.054688 -0.425781 2.078125 -1.085938 2.195312 -1.816406 L 2.195312 -1.839844 C 2.195312 -1.863281 2.21875 -1.863281 2.21875 -1.886719 Z M 6.371094 -13.425781 C 5.449219 -11.917969 4.671875 -10.359375 3.894531 -8.753906 C 3.445312 -7.808594 2.996094 -6.84375 2.644531 -5.828125 C 3.136719 -7.410156 3.726562 -8.917969 4.4375 -10.429688 C 5.285156 -12.246094 6.417969 -14.015625 7.761719 -15.480469 C 7.21875 -14.820312 6.75 -14.0625 6.371094 -13.425781 Z M 8.800781 -16.023438 C 8.472656 -15.691406 8.164062 -15.3125 7.882812 -14.960938 C 8.328125 -15.550781 8.800781 -16.140625 9.390625 -16.613281 C 9.179688 -16.421875 8.964844 -16.1875 8.800781 -16.023438 Z M 11.207031 -15.832031 C 11.253906 -15.976562 11.304688 -16.140625 11.328125 -16.328125 C 11.277344 -16.117188 11.183594 -15.902344 11.183594 -15.738281 C 11.207031 -15.785156 11.207031 -15.808594 11.207031 -15.832031 Z M 11.207031 -15.832031 "/></g></g><g style="fill:rgb(0%,0%,0%);fill-opacity:1;"><g transform="translate(61.285632, 44.531619)"><path style="stroke:none;" d="M 11.703125 -5.804688 C 11.585938 -5.804688 11.421875 -5.570312 11.351562 -5.496094 C 11.019531 -5.167969 10.738281 -4.789062 10.453125 -4.4375 C 9.675781 -3.539062 8.894531 -2.621094 8.046875 -1.792969 C 7.835938 -1.605469 7.292969 -0.96875 6.984375 -1.179688 C 6.796875 -1.296875 6.960938 -2.054688 6.984375 -2.21875 C 7.03125 -2.429688 7.457031 -3.539062 7.316406 -3.679688 C 7.246094 -3.726562 7.125 -3.375 7.101562 -3.351562 C 7.480469 -4.671875 8.234375 -6.183594 8.847656 -7.480469 C 9.203125 -8.1875 9.652344 -9.0625 9.0625 -9.792969 C 8.023438 -11.066406 6.726562 -9.4375 6.015625 -8.683594 C 5.710938 -8.351562 2.738281 -4.71875 2.785156 -4.695312 C 2.785156 -4.695312 2.996094 -4.957031 3.304688 -5.308594 C 2.855469 -4.71875 2.429688 -4.128906 2.03125 -3.515625 C 2.289062 -4.484375 2.570312 -5.425781 2.878906 -6.371094 C 3.042969 -6.84375 3.1875 -7.339844 3.351562 -7.835938 C 3.539062 -8.351562 3.679688 -8.566406 4.082031 -8.941406 C 4.765625 -9.558594 5.425781 -10.21875 6.039062 -10.925781 C 6.277344 -11.207031 6.441406 -11.539062 6.679688 -11.796875 C 6.890625 -12.011719 7.195312 -12.199219 7.433594 -12.460938 C 8.636719 -13.875 9.605469 -15.644531 10.40625 -17.296875 C 10.761719 -18.074219 11.089844 -18.878906 11.328125 -19.703125 C 11.375 -19.890625 11.894531 -22.0625 11.773438 -22.0625 C 11.75 -22.0625 11.75 -22.039062 11.726562 -21.992188 C 11.75 -22.371094 11.726562 -22.792969 11.585938 -23.171875 C 11.609375 -23.171875 11.726562 -22.816406 11.726562 -22.816406 C 11.871094 -22.914062 11.445312 -23.644531 11.351562 -23.738281 C 11.136719 -23.949219 10.832031 -24.070312 10.523438 -24.070312 C 9.910156 -24.117188 9.34375 -23.785156 8.871094 -23.429688 C 7.976562 -22.746094 7.339844 -21.734375 6.679688 -20.8125 C 6.300781 -20.292969 5.945312 -19.773438 5.617188 -19.230469 C 5.378906 -18.878906 4.859375 -18.242188 4.859375 -17.816406 C 4.882812 -17.792969 4.90625 -17.792969 4.90625 -17.792969 L 4.625 -17.25 C 4.625 -17.25 4.765625 -17.675781 4.789062 -17.699219 C 4.671875 -17.625 4.554688 -17.132812 4.554688 -17.109375 C 3.632812 -15.3125 2.667969 -13.589844 2.03125 -11.679688 C 1.296875 -9.53125 0.753906 -7.316406 0.355469 -5.097656 C 0.164062 -4.082031 -0.0703125 -2.972656 0.0234375 -1.933594 C 0.0234375 -1.652344 0.046875 -1.320312 0.257812 -1.085938 C 0.519531 -0.753906 1.0625 -0.636719 1.367188 -0.96875 C 1.464844 -1.085938 1.464844 -1.15625 1.511719 -1.273438 L 1.933594 -2.03125 C 2.5 -2.902344 3.1875 -3.703125 3.726562 -4.601562 C 3.800781 -4.742188 3.871094 -4.90625 3.964844 -5.027344 C 4.082031 -5.167969 4.128906 -5.097656 4.269531 -5.214844 C 4.671875 -5.546875 4.980469 -6.039062 5.308594 -6.441406 C 5.992188 -7.292969 6.679688 -8.257812 7.550781 -8.964844 L 6.867188 -7.316406 L 6.9375 -7.386719 L 6.582031 -6.582031 C 6.558594 -6.605469 6.652344 -6.820312 6.652344 -6.84375 C 6.558594 -6.84375 6.113281 -5.921875 6.0625 -5.828125 C 5.78125 -5.261719 5.472656 -4.695312 5.308594 -4.105469 C 5.167969 -3.539062 5.003906 -2.972656 4.835938 -2.40625 C 4.765625 -2.054688 4.695312 -1.699219 4.71875 -1.34375 C 4.71875 -1.25 4.90625 -0.402344 4.980469 -0.472656 L 4.980469 -0.566406 C 5.027344 -0.425781 5.074219 -0.308594 5.144531 -0.1875 L 5.003906 -0.402344 C 4.933594 -0.234375 5.570312 0.308594 5.640625 0.378906 C 5.992188 0.730469 6.347656 0.96875 6.890625 0.992188 C 7.339844 1.015625 7.574219 0.847656 7.90625 0.542969 C 8.800781 -0.332031 9.4375 -1.535156 10.121094 -2.570312 C 10.5 -3.113281 10.878906 -3.679688 11.230469 -4.246094 C 11.328125 -4.367188 11.964844 -5.6875 11.871094 -5.664062 C 12.011719 -5.6875 11.75 -5.804688 11.703125 -5.804688 Z M 9.652344 -21.683594 L 9.652344 -21.710938 C 9.652344 -21.710938 9.675781 -21.710938 9.675781 -21.734375 L 9.675781 -21.710938 C 9.699219 -21.757812 9.722656 -21.804688 9.699219 -21.78125 C 9.886719 -22.0625 10.359375 -22.914062 10.6875 -22.628906 C 11.019531 -22.347656 10.714844 -21.355469 10.617188 -21 C 10.429688 -20.269531 10.148438 -19.5625 9.863281 -18.878906 C 9.296875 -17.554688 8.589844 -16.304688 7.808594 -15.078125 C 7.433594 -14.488281 7.03125 -13.898438 6.628906 -13.332031 C 6.417969 -13.050781 6.207031 -12.765625 5.96875 -12.484375 L 5.78125 -12.269531 L 6.207031 -12.695312 L 7.148438 -14.015625 C 7.667969 -14.722656 8.164062 -15.503906 8.636719 -16.28125 C 7.433594 -14.15625 5.96875 -12.152344 4.269531 -10.359375 L 4.980469 -12.222656 C 5.050781 -12.363281 5.546875 -13.757812 5.546875 -13.757812 C 5.496094 -13.734375 5.425781 -13.617188 5.355469 -13.496094 C 5.921875 -14.796875 6.652344 -16.140625 7.316406 -17.4375 C 8.046875 -18.855469 8.777344 -20.316406 9.628906 -21.660156 C 9.628906 -21.660156 9.652344 -21.660156 9.652344 -21.683594 Z M 3.726562 -10.121094 C 3.941406 -11.398438 4.53125 -12.601562 4.957031 -13.828125 C 5.332031 -14.867188 5.945312 -15.808594 6.417969 -16.800781 C 6.628906 -17.273438 8.894531 -21.589844 8.941406 -21.566406 C 9.132812 -21.449219 6.230469 -15.902344 5.921875 -15.242188 C 5.664062 -14.746094 5.425781 -14.277344 5.238281 -13.734375 C 5.074219 -13.214844 4.789062 -12.789062 4.601562 -12.292969 C 4.507812 -12.058594 3.5625 -9.582031 3.632812 -9.558594 C 3.585938 -9.558594 3.679688 -9.933594 3.703125 -10.050781 Z M 5.355469 -11.773438 C 5.402344 -11.820312 5.449219 -11.917969 5.523438 -11.988281 C 5.449219 -11.917969 5.402344 -11.84375 5.355469 -11.773438 Z M 9.652344 -21.683594 L 9.652344 -21.710938 L 9.675781 -21.710938 Z M 3.726562 -10.097656 C 3.726562 -10.074219 3.703125 -10.050781 3.703125 -10.050781 C 3.703125 -10.074219 3.726562 -10.074219 3.726562 -10.097656 Z M 3.726562 -10.097656 "/></g></g><g style="fill:rgb(0%,0%,0%);fill-opacity:1;"><g transform="translate(71.45527, 44.531619)"><path style="stroke:none;" d="M 12.011719 -5.6875 C 11.988281 -6.207031 11.5625 -5.757812 11.421875 -5.570312 C 11.113281 -5.121094 10.832031 -4.648438 10.546875 -4.199219 C 9.910156 -3.234375 9.273438 -2.265625 8.542969 -1.34375 C 6.113281 1.652344 7.808594 -3.679688 7.621094 -3.632812 C 7.527344 -3.609375 7.457031 -3.257812 7.433594 -3.1875 C 7.621094 -4.035156 7.976562 -5.050781 8.425781 -5.875 C 8.683594 -6.394531 8.992188 -6.820312 8.519531 -7.386719 C 7.644531 -8.449219 6.628906 -7.480469 6.0625 -6.75 C 5.828125 -7.644531 5.355469 -8.964844 4.199219 -8.964844 C 3.679688 -8.964844 3.375 -8.707031 3.019531 -8.402344 C 2.808594 -8.257812 2.644531 -8.234375 2.453125 -8.070312 C 2.148438 -7.859375 1.933594 -7.527344 1.722656 -7.246094 C 0.921875 -6.0625 0.355469 -4.578125 0.09375 -3.210938 C -0.0234375 -2.546875 -0.0703125 -1.816406 0.117188 -1.15625 C 0.234375 -0.777344 0.660156 0.0703125 1.203125 0 C 1.226562 0 1.179688 -0.0234375 1.109375 -0.0703125 C 1.4375 0.0234375 1.816406 -0.0234375 2.101562 -0.210938 C 2.125 -0.164062 1.839844 -0.046875 1.839844 -0.046875 C 2.101562 0.355469 4.035156 -1.980469 4.175781 -2.195312 C 4.484375 -2.621094 4.695312 -3.066406 4.980469 -3.515625 C 5.191406 -3.847656 5.523438 -4.269531 5.757812 -4.625 C 5.734375 -4.460938 5.734375 -4.246094 5.734375 -4.246094 C 5.308594 -2.902344 4.90625 -1.4375 5.472656 -0.046875 C 5.734375 0.660156 6.371094 1.320312 7.171875 1.179688 C 7.882812 1.0625 8.472656 0.378906 8.894531 -0.164062 C 9.414062 -0.777344 9.863281 -1.464844 10.3125 -2.171875 C 10.6875 -2.808594 11.042969 -3.445312 11.351562 -4.152344 C 11.539062 -4.601562 12.058594 -5.144531 12.011719 -5.6875 Z M 5.238281 -5.523438 C 5.121094 -5.355469 5.003906 -5.191406 4.90625 -5.027344 L 4.292969 -4.152344 C 3.894531 -3.5625 3.46875 -2.996094 3.019531 -2.453125 C 2.902344 -2.289062 2.335938 -1.558594 2.101562 -1.628906 C 1.746094 -1.746094 2.125 -2.972656 2.171875 -3.160156 C 2.242188 -3.492188 3.492188 -7.125 3.824219 -7.195312 C 3.398438 -7.21875 2.03125 -2.949219 1.957031 -2.59375 C 2.148438 -3.75 2.570312 -4.882812 3.042969 -5.945312 C 3.304688 -6.488281 3.894531 -7.929688 4.671875 -7.929688 C 5.097656 -7.929688 5.191406 -7.054688 5.261719 -6.773438 C 5.238281 -6.820312 5.027344 -7.503906 5.003906 -7.480469 C 4.882812 -7.386719 5.355469 -6.089844 5.355469 -5.898438 C 5.355469 -5.710938 5.355469 -5.710938 5.238281 -5.523438 Z M 5.78125 -4.367188 C 5.78125 -4.367188 5.851562 -4.695312 5.875 -4.765625 L 5.992188 -4.933594 Z M 5.425781 -5.828125 L 5.425781 -6.0625 C 5.496094 -5.96875 5.496094 -5.898438 5.425781 -5.828125 Z M 5.425781 -5.828125 "/></g></g><g style="fill:rgb(0%,0%,0%);fill-opacity:1;"><g transform="translate(81.742886, 44.531619)"><path style="stroke:none;" d="M 11.160156 -5.757812 C 11.089844 -6.207031 10.003906 -4.957031 9.957031 -4.90625 C 9.273438 -4.175781 8.613281 -3.375 7.808594 -2.738281 C 7.433594 -2.453125 7.269531 -2.289062 7.292969 -2.855469 C 7.316406 -3.351562 7.503906 -3.871094 7.644531 -4.316406 C 7.714844 -4.554688 8.1875 -5.449219 8.046875 -5.617188 C 8.023438 -5.640625 7.976562 -5.570312 7.929688 -5.523438 C 8.257812 -6.183594 9.0625 -7.316406 8 -7.621094 C 6.796875 -7.953125 6.183594 -6.652344 5.664062 -5.875 C 5.167969 -5.167969 4.695312 -4.484375 4.128906 -3.847656 C 3.703125 -3.351562 3.042969 -2.40625 2.359375 -2.21875 C 1.722656 -2.003906 2.148438 -3.042969 2.242188 -3.398438 C 2.3125 -3.585938 3.160156 -5.78125 3.210938 -5.757812 C 3.160156 -5.757812 3.113281 -5.734375 3.066406 -5.664062 C 3.328125 -6.230469 3.609375 -6.796875 3.917969 -7.339844 C 3.847656 -7.195312 3.777344 -6.960938 3.777344 -6.960938 C 3.894531 -6.9375 4.460938 -8.09375 4.414062 -8.09375 C 4.367188 -8.070312 4.316406 -8.023438 4.269531 -7.953125 C 4.460938 -8.28125 4.695312 -8.449219 4.269531 -8.777344 C 3.847656 -9.109375 3.089844 -9.179688 2.667969 -8.800781 C 2.148438 -8.375 1.816406 -7.621094 1.558594 -7.03125 C 1.390625 -6.703125 1.109375 -6.511719 0.945312 -6.136719 C 0.613281 -5.402344 0.425781 -4.671875 0.234375 -3.917969 C 0.046875 -3.1875 -0.0703125 -2.429688 0.046875 -1.675781 C 0.117188 -1.34375 0.234375 -0.96875 0.496094 -0.730469 C 0.566406 -0.683594 1.25 -0.425781 1.203125 -0.589844 C 1.15625 -0.589844 1.109375 -0.589844 1.085938 -0.613281 C 1.34375 -0.613281 1.605469 -0.730469 1.839844 -0.875 C 1.863281 -0.847656 1.652344 -0.753906 1.652344 -0.730469 C 1.886719 -0.425781 3.679688 -2.242188 3.847656 -2.453125 C 4.4375 -3.210938 5.027344 -3.941406 5.640625 -4.671875 C 5.332031 -3.847656 4.8125 -2.714844 5.308594 -1.816406 C 5.59375 -1.34375 6.136719 -1.085938 6.652344 -1.132812 C 7.761719 -1.203125 8.753906 -2.40625 9.4375 -3.136719 C 9.886719 -3.632812 10.335938 -4.152344 10.664062 -4.71875 C 10.808594 -4.957031 11.183594 -5.472656 11.160156 -5.757812 Z M 7.574219 -5.285156 C 7.527344 -5.144531 7.503906 -4.957031 7.433594 -4.835938 C 7.433594 -4.8125 7.410156 -4.789062 7.386719 -4.765625 C 7.410156 -4.789062 7.410156 -4.8125 7.410156 -4.835938 C 7.21875 -5.425781 7.929688 -6.183594 8.164062 -6.773438 C 7.976562 -6.253906 7.738281 -5.78125 7.574219 -5.285156 Z M 1.957031 -2.242188 C 1.816406 -2.925781 2.3125 -3.871094 2.570312 -4.507812 C 2.242188 -3.585938 1.910156 -2.453125 1.957031 -2.242188 Z M 5.640625 -4.554688 C 5.640625 -4.648438 5.664062 -4.71875 5.734375 -4.765625 C 5.6875 -4.695312 5.664062 -4.625 5.640625 -4.554688 Z M 5.640625 -4.554688 "/></g></g><g style="fill:rgb(0%,0%,0%);fill-opacity:1;"><g transform="translate(91.181066, 44.531619)"><path style="stroke:none;" d="M 13.945312 -5.757812 L 13.945312 -5.78125 C 13.804688 -6.558594 12.742188 -5.261719 12.601562 -5.144531 C 11.917969 -4.390625 11.277344 -3.5625 10.664062 -2.738281 C 10.050781 -1.886719 9.460938 -1.039062 8.824219 -0.1875 C 8.519531 0.234375 8.210938 0.636719 7.859375 1.015625 C 7.738281 1.15625 7.457031 1.558594 7.246094 1.558594 C 6.417969 1.558594 7.054688 -1.769531 7.148438 -2.289062 C 7.292969 -3.210938 7.363281 -4.4375 7.953125 -5.167969 C 8.09375 -5.355469 9.699219 -7.410156 9.699219 -7.410156 C 9.652344 -7.433594 9.460938 -7.195312 9.34375 -7.054688 L 10.359375 -8.425781 L 10.429688 -8.519531 L 10.453125 -8.519531 L 10.429688 -8.519531 L 10.617188 -8.777344 C 10.640625 -8.753906 10.617188 -8.707031 10.59375 -8.660156 L 10.808594 -8.894531 L 11.421875 -9.699219 C 11.871094 -10.335938 12.292969 -11.019531 12.695312 -11.679688 C 13.332031 -12.765625 14.207031 -14.324219 13.734375 -15.644531 C 13.378906 -16.613281 12.082031 -16.800781 11.207031 -16.46875 C 10.570312 -16.234375 10.027344 -15.738281 9.582031 -15.21875 C 9.34375 -14.914062 9.109375 -14.582031 8.894531 -14.230469 C 8.824219 -14.132812 8.519531 -13.378906 8.449219 -13.285156 L 8.472656 -13.285156 C 8.328125 -13.027344 8.1875 -12.765625 8.09375 -12.507812 C 8.140625 -12.695312 8.257812 -13.074219 8.351562 -13.144531 C 8.164062 -13 8 -12.316406 7.953125 -12.246094 C 7.054688 -10.289062 6.277344 -8.304688 5.710938 -6.230469 C 5.074219 -6.960938 4.058594 -8.210938 2.949219 -7.761719 C 2.03125 -7.386719 1.34375 -6.417969 0.875 -5.570312 C 0.449219 -4.8125 0.332031 -4.035156 0.0234375 -3.304688 C -0.519531 -2.054688 -0.777344 0.519531 1.0625 0.898438 C 1.628906 1.015625 2.148438 0.660156 2.59375 0.355469 C 3.398438 -0.234375 4.152344 -0.921875 4.859375 -1.628906 C 4.742188 -0.378906 4.484375 1.511719 5.496094 2.5 C 6.75 3.777344 8 2.054688 8.753906 1.109375 C 9.722656 -0.117188 10.476562 -1.488281 11.445312 -2.667969 C 11.917969 -3.234375 12.386719 -3.800781 12.882812 -4.316406 C 13.261719 -4.695312 14.015625 -5.167969 13.945312 -5.757812 Z M 5.261719 -4.199219 C 5.238281 -4.128906 5.238281 -4.082031 5.238281 -4.082031 C 5.144531 -3.515625 5.144531 -3.019531 4.742188 -2.621094 C 4.390625 -2.242188 4.011719 -1.886719 3.632812 -1.535156 C 3.28125 -1.203125 2.429688 -0.234375 1.886719 -0.28125 C 1.226562 -0.355469 1.722656 -1.863281 2.054688 -2.785156 C 1.699219 -1.839844 1.132812 -0.308594 1.910156 -0.257812 C 2.125 -0.234375 2.476562 -0.425781 2.785156 -0.683594 C 2.5 -0.425781 2.03125 -0.0703125 1.746094 -0.210938 C 1.203125 -0.449219 1.675781 -1.792969 1.769531 -2.171875 C 2.078125 -3.257812 2.523438 -4.292969 3.042969 -5.285156 C 3.304688 -5.78125 3.679688 -6.582031 4.175781 -6.628906 L 4.058594 -6.558594 C 4.082031 -6.582031 4.105469 -6.582031 4.128906 -6.582031 C 4.292969 -6.628906 4.460938 -6.511719 4.578125 -6.417969 C 4.882812 -6.207031 5.074219 -5.804688 5.285156 -5.496094 C 5.523438 -5.121094 5.355469 -4.71875 5.261719 -4.292969 Z M 9.0625 -9.652344 C 9.0625 -9.675781 9.0625 -9.722656 9.085938 -9.746094 L 9.085938 -9.769531 C 9.109375 -9.839844 9.132812 -9.863281 9.132812 -9.863281 L 9.132812 -9.886719 C 9.675781 -11.398438 10.265625 -12.90625 11.113281 -14.277344 C 11.328125 -14.628906 11.941406 -15.714844 12.484375 -15.410156 C 12.695312 -15.289062 12.742188 -14.984375 12.742188 -14.773438 C 12.835938 -13.355469 11.703125 -11.679688 10.996094 -10.546875 C 10.171875 -9.226562 9.25 -7.929688 8.28125 -6.726562 L 8.800781 -7.269531 L 9.273438 -7.859375 L 8.070312 -6.300781 L 7.90625 -6.089844 L 7.808594 -5.992188 C 7.835938 -6.136719 7.953125 -6.277344 8.070312 -6.441406 C 8.023438 -6.394531 7.976562 -6.347656 7.953125 -6.300781 C 8.257812 -7.316406 8.589844 -8.328125 8.941406 -9.34375 C 8.917969 -9.320312 8.941406 -9.367188 8.964844 -9.460938 L 9.039062 -9.582031 C 9.039062 -9.605469 9.039062 -9.628906 9.0625 -9.652344 Z M 7.078125 -7.714844 C 7.03125 -7.597656 6.890625 -7.054688 6.820312 -6.984375 C 6.820312 -6.960938 6.796875 -6.9375 6.773438 -6.9375 C 6.960938 -7.171875 6.84375 -7.480469 6.9375 -7.761719 C 6.984375 -7.90625 7.21875 -8.164062 7.269531 -8.351562 C 7.269531 -8.164062 7.148438 -7.835938 7.078125 -7.714844 Z M 3.328125 -1.179688 C 3.917969 -1.699219 4.484375 -2.242188 5.027344 -2.808594 C 4.980469 -2.5 4.246094 -1.980469 3.988281 -1.746094 C 3.679688 -1.4375 3.328125 -1.132812 2.972656 -0.847656 L 2.949219 -0.847656 Z M 7.503906 -9.863281 C 7.410156 -9.582031 7.292969 -9.320312 7.148438 -9.0625 C 7.269531 -9.414062 7.339844 -9.769531 7.503906 -10.097656 C 7.644531 -10.359375 7.808594 -10.6875 7.929688 -10.996094 C 7.808594 -10.617188 7.621094 -10.21875 7.503906 -9.863281 Z M 9.039062 -9.582031 L 8.941406 -9.34375 C 8.941406 -9.367188 8.964844 -9.414062 8.964844 -9.460938 Z M 3.941406 -6.464844 C 3.847656 -6.394531 3.777344 -6.300781 3.75 -6.300781 C 3.800781 -6.300781 3.871094 -6.394531 3.941406 -6.464844 Z M 4.601562 -6.511719 C 4.648438 -6.488281 4.695312 -6.464844 4.742188 -6.417969 Z M 9.273438 -6.9375 C 9.273438 -6.960938 9.296875 -6.984375 9.320312 -7.007812 C 9.296875 -6.960938 9.273438 -6.9375 9.273438 -6.9375 Z M 9.320312 -7.007812 L 9.34375 -7.054688 C 9.34375 -7.03125 9.320312 -7.007812 9.320312 -7.007812 Z M 9.320312 -7.007812 "/></g></g><g style="fill:rgb(0%,0%,0%);fill-opacity:1;"><g transform="translate(103.403513, 44.531619)"><path style="stroke:none;" d="M 11.703125 -5.804688 C 11.585938 -5.804688 11.421875 -5.570312 11.351562 -5.496094 C 11.019531 -5.167969 10.738281 -4.789062 10.453125 -4.4375 C 9.675781 -3.539062 8.894531 -2.621094 8.046875 -1.792969 C 7.835938 -1.605469 7.292969 -0.96875 6.984375 -1.179688 C 6.796875 -1.296875 6.960938 -2.054688 6.984375 -2.21875 C 7.03125 -2.429688 7.457031 -3.539062 7.316406 -3.679688 C 7.246094 -3.726562 7.125 -3.375 7.101562 -3.351562 C 7.480469 -4.671875 8.234375 -6.183594 8.847656 -7.480469 C 9.203125 -8.1875 9.652344 -9.0625 9.0625 -9.792969 C 8.023438 -11.066406 6.726562 -9.4375 6.015625 -8.683594 C 5.710938 -8.351562 2.738281 -4.71875 2.785156 -4.695312 C 2.785156 -4.695312 2.996094 -4.957031 3.304688 -5.308594 C 2.855469 -4.71875 2.429688 -4.128906 2.03125 -3.515625 C 2.289062 -4.484375 2.570312 -5.425781 2.878906 -6.371094 C 3.042969 -6.84375 3.1875 -7.339844 3.351562 -7.835938 C 3.539062 -8.351562 3.679688 -8.566406 4.082031 -8.941406 C 4.765625 -9.558594 5.425781 -10.21875 6.039062 -10.925781 C 6.277344 -11.207031 6.441406 -11.539062 6.679688 -11.796875 C 6.890625 -12.011719 7.195312 -12.199219 7.433594 -12.460938 C 8.636719 -13.875 9.605469 -15.644531 10.40625 -17.296875 C 10.761719 -18.074219 11.089844 -18.878906 11.328125 -19.703125 C 11.375 -19.890625 11.894531 -22.0625 11.773438 -22.0625 C 11.75 -22.0625 11.75 -22.039062 11.726562 -21.992188 C 11.75 -22.371094 11.726562 -22.792969 11.585938 -23.171875 C 11.609375 -23.171875 11.726562 -22.816406 11.726562 -22.816406 C 11.871094 -22.914062 11.445312 -23.644531 11.351562 -23.738281 C 11.136719 -23.949219 10.832031 -24.070312 10.523438 -24.070312 C 9.910156 -24.117188 9.34375 -23.785156 8.871094 -23.429688 C 7.976562 -22.746094 7.339844 -21.734375 6.679688 -20.8125 C 6.300781 -20.292969 5.945312 -19.773438 5.617188 -19.230469 C 5.378906 -18.878906 4.859375 -18.242188 4.859375 -17.816406 C 4.882812 -17.792969 4.90625 -17.792969 4.90625 -17.792969 L 4.625 -17.25 C 4.625 -17.25 4.765625 -17.675781 4.789062 -17.699219 C 4.671875 -17.625 4.554688 -17.132812 4.554688 -17.109375 C 3.632812 -15.3125 2.667969 -13.589844 2.03125 -11.679688 C 1.296875 -9.53125 0.753906 -7.316406 0.355469 -5.097656 C 0.164062 -4.082031 -0.0703125 -2.972656 0.0234375 -1.933594 C 0.0234375 -1.652344 0.046875 -1.320312 0.257812 -1.085938 C 0.519531 -0.753906 1.0625 -0.636719 1.367188 -0.96875 C 1.464844 -1.085938 1.464844 -1.15625 1.511719 -1.273438 L 1.933594 -2.03125 C 2.5 -2.902344 3.1875 -3.703125 3.726562 -4.601562 C 3.800781 -4.742188 3.871094 -4.90625 3.964844 -5.027344 C 4.082031 -5.167969 4.128906 -5.097656 4.269531 -5.214844 C 4.671875 -5.546875 4.980469 -6.039062 5.308594 -6.441406 C 5.992188 -7.292969 6.679688 -8.257812 7.550781 -8.964844 L 6.867188 -7.316406 L 6.9375 -7.386719 L 6.582031 -6.582031 C 6.558594 -6.605469 6.652344 -6.820312 6.652344 -6.84375 C 6.558594 -6.84375 6.113281 -5.921875 6.0625 -5.828125 C 5.78125 -5.261719 5.472656 -4.695312 5.308594 -4.105469 C 5.167969 -3.539062 5.003906 -2.972656 4.835938 -2.40625 C 4.765625 -2.054688 4.695312 -1.699219 4.71875 -1.34375 C 4.71875 -1.25 4.90625 -0.402344 4.980469 -0.472656 L 4.980469 -0.566406 C 5.027344 -0.425781 5.074219 -0.308594 5.144531 -0.1875 L 5.003906 -0.402344 C 4.933594 -0.234375 5.570312 0.308594 5.640625 0.378906 C 5.992188 0.730469 6.347656 0.96875 6.890625 0.992188 C 7.339844 1.015625 7.574219 0.847656 7.90625 0.542969 C 8.800781 -0.332031 9.4375 -1.535156 10.121094 -2.570312 C 10.5 -3.113281 10.878906 -3.679688 11.230469 -4.246094 C 11.328125 -4.367188 11.964844 -5.6875 11.871094 -5.664062 C 12.011719 -5.6875 11.75 -5.804688 11.703125 -5.804688 Z M 9.652344 -21.683594 L 9.652344 -21.710938 C 9.652344 -21.710938 9.675781 -21.710938 9.675781 -21.734375 L 9.675781 -21.710938 C 9.699219 -21.757812 9.722656 -21.804688 9.699219 -21.78125 C 9.886719 -22.0625 10.359375 -22.914062 10.6875 -22.628906 C 11.019531 -22.347656 10.714844 -21.355469 10.617188 -21 C 10.429688 -20.269531 10.148438 -19.5625 9.863281 -18.878906 C 9.296875 -17.554688 8.589844 -16.304688 7.808594 -15.078125 C 7.433594 -14.488281 7.03125 -13.898438 6.628906 -13.332031 C 6.417969 -13.050781 6.207031 -12.765625 5.96875 -12.484375 L 5.78125 -12.269531 L 6.207031 -12.695312 L 7.148438 -14.015625 C 7.667969 -14.722656 8.164062 -15.503906 8.636719 -16.28125 C 7.433594 -14.15625 5.96875 -12.152344 4.269531 -10.359375 L 4.980469 -12.222656 C 5.050781 -12.363281 5.546875 -13.757812 5.546875 -13.757812 C 5.496094 -13.734375 5.425781 -13.617188 5.355469 -13.496094 C 5.921875 -14.796875 6.652344 -16.140625 7.316406 -17.4375 C 8.046875 -18.855469 8.777344 -20.316406 9.628906 -21.660156 C 9.628906 -21.660156 9.652344 -21.660156 9.652344 -21.683594 Z M 3.726562 -10.121094 C 3.941406 -11.398438 4.53125 -12.601562 4.957031 -13.828125 C 5.332031 -14.867188 5.945312 -15.808594 6.417969 -16.800781 C 6.628906 -17.273438 8.894531 -21.589844 8.941406 -21.566406 C 9.132812 -21.449219 6.230469 -15.902344 5.921875 -15.242188 C 5.664062 -14.746094 5.425781 -14.277344 5.238281 -13.734375 C 5.074219 -13.214844 4.789062 -12.789062 4.601562 -12.292969 C 4.507812 -12.058594 3.5625 -9.582031 3.632812 -9.558594 C 3.585938 -9.558594 3.679688 -9.933594 3.703125 -10.050781 Z M 5.355469 -11.773438 C 5.402344 -11.820312 5.449219 -11.917969 5.523438 -11.988281 C 5.449219 -11.917969 5.402344 -11.84375 5.355469 -11.773438 Z M 9.652344 -21.683594 L 9.652344 -21.710938 L 9.675781 -21.710938 Z M 3.726562 -10.097656 C 3.726562 -10.074219 3.703125 -10.050781 3.703125 -10.050781 C 3.703125 -10.074219 3.726562 -10.074219 3.726562 -10.097656 Z M 3.726562 -10.097656 "/></g></g><g style="fill:rgb(0%,0%,0%);fill-opacity:1;"><g transform="translate(113.573151, 44.531619)"><path style="stroke:none;" d="M 11.160156 -5.757812 C 11.089844 -6.207031 10.003906 -4.957031 9.957031 -4.90625 C 9.273438 -4.175781 8.613281 -3.375 7.808594 -2.738281 C 7.433594 -2.453125 7.269531 -2.289062 7.292969 -2.855469 C 7.316406 -3.351562 7.503906 -3.871094 7.644531 -4.316406 C 7.714844 -4.554688 8.1875 -5.449219 8.046875 -5.617188 C 8.023438 -5.640625 7.976562 -5.570312 7.929688 -5.523438 C 8.257812 -6.183594 9.0625 -7.316406 8 -7.621094 C 6.796875 -7.953125 6.183594 -6.652344 5.664062 -5.875 C 5.167969 -5.167969 4.695312 -4.484375 4.128906 -3.847656 C 3.703125 -3.351562 3.042969 -2.40625 2.359375 -2.21875 C 1.722656 -2.003906 2.148438 -3.042969 2.242188 -3.398438 C 2.3125 -3.585938 3.160156 -5.78125 3.210938 -5.757812 C 3.160156 -5.757812 3.113281 -5.734375 3.066406 -5.664062 C 3.328125 -6.230469 3.609375 -6.796875 3.917969 -7.339844 C 3.847656 -7.195312 3.777344 -6.960938 3.777344 -6.960938 C 3.894531 -6.9375 4.460938 -8.09375 4.414062 -8.09375 C 4.367188 -8.070312 4.316406 -8.023438 4.269531 -7.953125 C 4.460938 -8.28125 4.695312 -8.449219 4.269531 -8.777344 C 3.847656 -9.109375 3.089844 -9.179688 2.667969 -8.800781 C 2.148438 -8.375 1.816406 -7.621094 1.558594 -7.03125 C 1.390625 -6.703125 1.109375 -6.511719 0.945312 -6.136719 C 0.613281 -5.402344 0.425781 -4.671875 0.234375 -3.917969 C 0.046875 -3.1875 -0.0703125 -2.429688 0.046875 -1.675781 C 0.117188 -1.34375 0.234375 -0.96875 0.496094 -0.730469 C 0.566406 -0.683594 1.25 -0.425781 1.203125 -0.589844 C 1.15625 -0.589844 1.109375 -0.589844 1.085938 -0.613281 C 1.34375 -0.613281 1.605469 -0.730469 1.839844 -0.875 C 1.863281 -0.847656 1.652344 -0.753906 1.652344 -0.730469 C 1.886719 -0.425781 3.679688 -2.242188 3.847656 -2.453125 C 4.4375 -3.210938 5.027344 -3.941406 5.640625 -4.671875 C 5.332031 -3.847656 4.8125 -2.714844 5.308594 -1.816406 C 5.59375 -1.34375 6.136719 -1.085938 6.652344 -1.132812 C 7.761719 -1.203125 8.753906 -2.40625 9.4375 -3.136719 C 9.886719 -3.632812 10.335938 -4.152344 10.664062 -4.71875 C 10.808594 -4.957031 11.183594 -5.472656 11.160156 -5.757812 Z M 7.574219 -5.285156 C 7.527344 -5.144531 7.503906 -4.957031 7.433594 -4.835938 C 7.433594 -4.8125 7.410156 -4.789062 7.386719 -4.765625 C 7.410156 -4.789062 7.410156 -4.8125 7.410156 -4.835938 C 7.21875 -5.425781 7.929688 -6.183594 8.164062 -6.773438 C 7.976562 -6.253906 7.738281 -5.78125 7.574219 -5.285156 Z M 1.957031 -2.242188 C 1.816406 -2.925781 2.3125 -3.871094 2.570312 -4.507812 C 2.242188 -3.585938 1.910156 -2.453125 1.957031 -2.242188 Z M 5.640625 -4.554688 C 5.640625 -4.648438 5.664062 -4.71875 5.734375 -4.765625 C 5.6875 -4.695312 5.664062 -4.625 5.640625 -4.554688 Z M 5.640625 -4.554688 "/></g></g><g style="fill:rgb(0%,0%,0%);fill-opacity:1;"><g transform="translate(123.011331, 44.531619)"><path style="stroke:none;" d="M 9.675781 -5.734375 C 9.53125 -6.347656 8.964844 -5.523438 8.847656 -5.378906 L 7.550781 -3.632812 L 6.277344 -1.957031 L 5.59375 -1.085938 C 5.523438 -0.992188 5.003906 -0.332031 5.050781 -0.332031 C 5.097656 -0.378906 5.167969 -0.378906 5.238281 -0.449219 C 4.882812 -0.0703125 3.585938 1.109375 3.351562 0.824219 C 3.160156 0.589844 3.679688 -0.402344 3.75 -0.636719 C 4.011719 -1.320312 4.246094 -2.03125 4.53125 -2.691406 C 4.835938 -3.375 5.191406 -4.058594 5.472656 -4.742188 C 5.757812 -5.472656 5.332031 -5.734375 4.648438 -5.898438 C 4.34375 -5.96875 3.964844 -5.96875 3.609375 -6.015625 C 3.609375 -5.992188 3.632812 -5.992188 3.632812 -5.992188 C 3.941406 -5.945312 4.390625 -5.921875 4.765625 -5.804688 C 4.199219 -5.96875 3.492188 -5.898438 3.042969 -6.015625 C 2.738281 -6.089844 2.546875 -6.089844 2.59375 -6.441406 C 2.644531 -6.914062 3.136719 -7.410156 3.304688 -7.859375 C 3.304688 -7.835938 3.136719 -7.410156 3.160156 -7.410156 C 3.28125 -7.363281 3.46875 -8.023438 3.46875 -8.117188 C 3.445312 -8.234375 3.160156 -8.589844 3.136719 -8.449219 L 3.1875 -8.375 C 2.054688 -9.15625 0.707031 -7.550781 0.945312 -6.394531 C 0.992188 -6.230469 1.085938 -6.136719 1.15625 -5.945312 C 1.203125 -5.804688 1.15625 -5.640625 1.296875 -5.449219 C 1.792969 -4.835938 2.691406 -4.8125 3.398438 -4.957031 C 3.28125 -4.789062 2.03125 -2.148438 2.101562 -2.125 L 1.933594 -1.535156 C 1.910156 -1.558594 2.003906 -1.746094 1.957031 -1.746094 C 1.792969 -1.769531 1.464844 -0.402344 1.4375 -0.28125 C 1.34375 0.28125 1.367188 0.777344 1.605469 1.296875 C 1.746094 1.628906 1.910156 1.910156 2.21875 2.101562 C 2.5 2.289062 2.855469 2.382812 3.1875 2.3125 C 3.304688 2.265625 3.75 1.957031 3.632812 1.980469 L 3.800781 1.910156 C 3.777344 1.933594 3.75 1.957031 3.75 1.980469 C 3.824219 2.003906 4.90625 1.132812 5.050781 1.039062 C 5.804688 0.402344 6.417969 -0.378906 6.984375 -1.15625 C 7.550781 -1.957031 8.140625 -2.761719 8.683594 -3.5625 C 8.941406 -3.941406 9.179688 -4.316406 9.367188 -4.71875 C 9.507812 -5.003906 9.746094 -5.402344 9.675781 -5.734375 Z M 2.621094 -2.902344 C 2.785156 -3.328125 2.972656 -3.726562 3.1875 -4.128906 C 3.234375 -4.199219 3.5625 -5.050781 3.726562 -5.097656 C 3.609375 -5.027344 3.113281 -3.871094 2.996094 -3.65625 L 2.546875 -2.621094 C 2.3125 -2.054688 2.054688 -1.464844 1.886719 -0.847656 C 2.054688 -1.558594 2.335938 -2.242188 2.621094 -2.902344 Z M 2.054688 1.628906 C 2.195312 1.816406 2.382812 2.003906 2.644531 2.101562 C 2.429688 2.03125 2.242188 1.910156 2.101562 1.769531 C 2.125 1.769531 2.125 1.792969 2.125 1.816406 C 1.980469 1.628906 1.792969 1.226562 1.769531 1.15625 C 1.699219 0.875 1.675781 0.542969 1.699219 0.257812 C 1.699219 0.0234375 1.722656 -0.164062 1.769531 -0.378906 L 1.769531 -0.355469 C 1.722656 -0.046875 1.699219 0.257812 1.722656 0.589844 L 1.722656 0.707031 C 1.699219 0.683594 1.699219 0.660156 1.699219 0.660156 C 1.699219 0.660156 1.699219 0.683594 1.722656 0.730469 L 1.722656 0.753906 L 1.816406 1.25 L 1.746094 0.945312 C 1.792969 1.085938 1.910156 1.34375 2.03125 1.605469 L 2.003906 1.582031 C 2.003906 1.605469 2.03125 1.628906 2.054688 1.652344 Z M 2.714844 -6.160156 C 2.832031 -6.0625 3.042969 -6.039062 3.257812 -6.015625 C 3.066406 -6.039062 2.902344 -6.089844 2.785156 -6.183594 C 2.785156 -6.183594 2.644531 -6.300781 2.621094 -6.347656 C 2.621094 -6.300781 2.667969 -6.183594 2.714844 -6.160156 Z M 5.191406 -4.316406 L 4.695312 -3.28125 L 5.191406 -4.34375 Z M 1.792969 -0.449219 C 1.792969 -0.425781 1.769531 -0.402344 1.769531 -0.378906 L 1.769531 -0.402344 C 1.769531 -0.425781 1.792969 -0.425781 1.792969 -0.449219 Z M 5.214844 -4.390625 L 5.214844 -4.367188 L 5.191406 -4.367188 Z M 5.214844 -4.390625 L 5.214844 -4.367188 L 5.191406 -4.367188 Z M 1.816406 -0.753906 C 1.816406 -0.777344 1.839844 -0.800781 1.839844 -0.847656 C 1.839844 -0.800781 1.816406 -0.777344 1.816406 -0.753906 Z M 1.910156 1.414062 C 1.910156 1.414062 1.933594 1.4375 1.933594 1.464844 C 1.933594 1.4375 1.910156 1.4375 1.910156 1.414062 Z M 2.644531 -6.394531 C 2.621094 -6.394531 2.621094 -6.371094 2.621094 -6.371094 Z M 2.644531 -6.394531 "/></g></g><g style="fill:rgb(0%,0%,0%);fill-opacity:1;"><g transform="translate(130.963001, 44.531619)"><path style="stroke:none;" d="M 13.757812 -5.640625 C 13.6875 -6.394531 12.953125 -5.664062 12.71875 -5.449219 C 12.316406 -5.121094 11.894531 -4.835938 11.492188 -4.507812 C 10.335938 -3.632812 9.25 -2.714844 8.164062 -1.792969 C 8.613281 -3.066406 9.273438 -4.34375 9.980469 -5.496094 C 10.121094 -5.734375 10.242188 -5.945312 10.195312 -6.230469 C 10.074219 -6.867188 9.226562 -7.125 8.660156 -7.03125 C 8.164062 -6.9375 8.117188 -6.703125 8.023438 -6.371094 C 7.835938 -5.78125 7.148438 -5.261719 6.75 -4.8125 C 6.582031 -4.625 5.472656 -3.28125 5.449219 -3.28125 C 5.523438 -3.28125 5.570312 -3.328125 5.617188 -3.351562 C 5.097656 -2.808594 4.292969 -2.242188 3.65625 -1.746094 C 3.398438 -1.535156 2.644531 -0.777344 2.242188 -0.921875 C 1.109375 -1.273438 3.445312 -5.804688 3.375 -5.828125 C 3.304688 -5.851562 2.546875 -3.988281 2.382812 -3.5625 C 2.761719 -4.71875 3.257812 -5.851562 3.777344 -6.9375 C 3.75 -6.84375 3.679688 -6.652344 3.726562 -6.652344 C 3.800781 -6.628906 4.152344 -7.410156 4.082031 -7.433594 C 4.058594 -7.433594 4.035156 -7.410156 4.011719 -7.410156 C 4.082031 -7.503906 4.199219 -7.550781 4.246094 -7.691406 C 4.316406 -8 3.964844 -8.328125 3.703125 -8.425781 C 3.136719 -8.660156 2.476562 -8.328125 2.21875 -7.785156 C 2.148438 -7.691406 2.078125 -7.527344 2.03125 -7.480469 C 1.957031 -7.339844 1.839844 -7.292969 1.746094 -7.148438 C 1.488281 -6.703125 1.34375 -6.183594 1.15625 -5.710938 C 1.085938 -5.496094 0.257812 -3.136719 0.378906 -3.113281 L 0.425781 -3.160156 C 0.378906 -2.996094 0.355469 -2.808594 0.332031 -2.644531 C 0.28125 -2.667969 0.355469 -2.808594 0.308594 -2.808594 C 0.0703125 -2.832031 -0.0234375 -1.320312 0 -1.15625 C 0.046875 -0.683594 0.355469 -0.09375 0.800781 0.140625 C 1.015625 0.257812 1.296875 0.308594 1.558594 0.257812 C 1.652344 0.257812 2.101562 0.0703125 1.933594 0.0703125 L 2.078125 0.0234375 L 2.03125 0.0703125 C 2.054688 0.09375 2.902344 -0.28125 3.042969 -0.332031 C 3.726562 -0.613281 4.316406 -1.15625 4.8125 -1.675781 L 6.371094 -3.234375 C 6.726562 -3.585938 7.03125 -4.128906 7.410156 -4.414062 C 7.195312 -3.75 6.984375 -3.089844 6.796875 -2.429688 C 6.535156 -1.652344 6.394531 -0.683594 6.015625 0.0234375 C 5.710938 0.589844 4.933594 1.109375 4.484375 1.558594 C 3.847656 2.148438 3.210938 2.738281 2.621094 3.351562 C 1.792969 4.222656 1.0625 5.214844 0.332031 6.183594 C -0.425781 7.195312 -1.464844 8.636719 -0.519531 9.863281 C 0.117188 10.738281 1.296875 11.277344 2.359375 10.996094 C 3.328125 10.761719 3.703125 9.957031 4.175781 9.203125 C 5.6875 6.703125 6.511719 3.800781 7.386719 1.039062 C 7.527344 0.636719 7.621094 -0.0703125 7.859375 -0.402344 C 8.09375 -0.730469 8.566406 -1.015625 8.847656 -1.273438 C 9.558594 -1.910156 10.289062 -2.523438 11.019531 -3.113281 L 13.074219 -4.742188 C 13.378906 -4.980469 13.804688 -5.191406 13.757812 -5.640625 Z M 3.609375 6.605469 L 3.609375 6.628906 L 3.515625 6.820312 L 3.515625 6.84375 C 3.492188 6.84375 3.492188 6.867188 3.492188 6.867188 C 3.492188 6.890625 3.46875 6.9375 3.46875 6.9375 C 3.234375 7.480469 2.949219 8.023438 2.644531 8.542969 C 2.382812 8.964844 2.03125 9.652344 1.535156 9.816406 C 0.589844 10.148438 0.519531 8.589844 0.660156 8.070312 C 1.015625 6.796875 1.957031 5.6875 2.761719 4.671875 C 3.585938 3.609375 4.460938 2.644531 5.449219 1.722656 C 4.882812 3.351562 4.316406 5.003906 3.609375 6.605469 Z M 4.980469 6.277344 C 5.074219 5.992188 5.238281 5.6875 5.402344 5.402344 C 5.261719 5.828125 5.144531 6.253906 4.882812 6.679688 L 4.671875 7.054688 C 4.765625 6.796875 4.859375 6.511719 4.980469 6.277344 Z M 5.78125 3.703125 L 5.355469 4.742188 C 5.402344 4.53125 5.449219 4.292969 5.546875 4.152344 C 5.640625 3.941406 5.828125 3.5625 5.78125 3.304688 C 5.804688 3.421875 5.828125 3.585938 5.78125 3.703125 Z M 5.027344 5.710938 L 5.121094 5.570312 C 5.097656 5.617188 5.074219 5.664062 5.027344 5.710938 Z M 5.027344 5.710938 "/></g></g></g></svg>